<?xml version="1.0" encoding="UTF-8" standalone="no"?>
<svg
   version="1.1"
   viewBox="0 0 1649.9999 233.81997"
   id="svg12"
   width="1650"
   height="233.81996"
   xmlns:xlink="http://www.w3.org/1999/xlink"
   xmlns="http://www.w3.org/2000/svg"
   xmlns:svg="http://www.w3.org/2000/svg">
  <defs
     id="defs16">
    <linearGradient
       id="linearGradient5186">
      <stop
         style="stop-color:#ef2008;stop-opacity:1"
         offset="0"
         id="stop5182" />
      <stop
         style="stop-color:#ff6428;stop-opacity:1"
         offset="1"
         id="stop5184" />
    </linearGradient>
    <linearGradient
       xlink:href="#linearGradient5186"
       id="linearGradient17039"
       gradientUnits="userSpaceOnUse"
       gradientTransform="matrix(1.2079295,0,0,1.2079295,80.207938,-69.700174)"
       x1="225.77231"
       y1="173.93456"
       x2="1111.1683"
       y2="173.93456" />
    <linearGradient
       xlink:href="#linearGradient5186"
       id="linearGradient17043"
       gradientUnits="userSpaceOnUse"
       gradientTransform="matrix(1.6316181,0,0,1.6316181,1218.8357,-287.54031)"
       x1="225.77231"
       y1="173.93456"
       x2="1111.1683"
       y2="173.93456" />
    <linearGradient
       xlink:href="#linearGradient5186"
       id="linearGradient11474"
       x1="208.5686"
       y1="115.51498"
       x2="1585.5112"
       y2="115.51498"
       gradientUnits="userSpaceOnUse"
       gradientTransform="translate(-13.930731,-31.731972)" />
    <linearGradient
       xlink:href="#linearGradient5186"
       id="linearGradient9555-6-0-7"
       gradientUnits="userSpaceOnUse"
       gradientTransform="matrix(0.49013865,0.84996785,-0.89525252,0.51749706,142.61554,-55.832112)"
       x1="51.713676"
       y1="99.769508"
       x2="210.40228"
       y2="99.769508" />
    <linearGradient
       xlink:href="#linearGradient1884"
       id="linearGradient15669"
       gradientUnits="userSpaceOnUse"
       gradientTransform="matrix(0.53054057,0.92003037,-0.91737816,0.53028668,123.15539,-151.902)"
       x1="115.86406"
       y1="186.00212"
       x2="301.39139"
       y2="186.00212" />
    <linearGradient
       xlink:href="#linearGradient5186"
       id="linearGradient861"
       x1="177.47392"
       y1="85.937981"
       x2="1418.8431"
       y2="85.937981"
       gradientUnits="userSpaceOnUse"
       gradientTransform="translate(4.0030387)" />
    <linearGradient
       xlink:href="#linearGradient1884"
       id="linearGradient1031"
       x1="412.81375"
       y1="252.29321"
       x2="499.96292"
       y2="252.29321"
       gradientUnits="userSpaceOnUse"
       gradientTransform="matrix(1.0592971,0,0,1.0605733,-412.29238,-137.6786)" />
    <linearGradient
       id="linearGradient1884">
      <stop
         style="stop-color:#157ee9;stop-opacity:1"
         offset="0"
         id="stop1880" />
      <stop
         style="stop-color:#3ecc78;stop-opacity:1"
         offset="1"
         id="stop1882" />
    </linearGradient>
    <linearGradient
       xlink:href="#linearGradient5186"
       id="linearGradient1136"
       gradientUnits="userSpaceOnUse"
       gradientTransform="translate(4.0030387)"
       x1="177.47392"
       y1="85.937981"
       x2="1418.8431"
       y2="85.937981" />
    <linearGradient
       xlink:href="#linearGradient5186"
       id="linearGradient1138"
       gradientUnits="userSpaceOnUse"
       gradientTransform="translate(4.0030387)"
       x1="177.47392"
       y1="85.937981"
       x2="1418.8431"
       y2="85.937981" />
    <linearGradient
       xlink:href="#linearGradient5186"
       id="linearGradient1140"
       gradientUnits="userSpaceOnUse"
       gradientTransform="translate(4.0030387)"
       x1="177.47392"
       y1="85.937981"
       x2="1418.8431"
       y2="85.937981" />
    <linearGradient
       xlink:href="#linearGradient5186"
       id="linearGradient1142"
       gradientUnits="userSpaceOnUse"
       gradientTransform="translate(4.0030387)"
       x1="177.47392"
       y1="85.937981"
       x2="1418.8431"
       y2="85.937981" />
    <linearGradient
       xlink:href="#linearGradient5186"
       id="linearGradient1144"
       gradientUnits="userSpaceOnUse"
       gradientTransform="translate(4.0030387)"
       x1="177.47392"
       y1="85.937981"
       x2="1418.8431"
       y2="85.937981" />
    <linearGradient
       xlink:href="#linearGradient5186"
       id="linearGradient1146"
       gradientUnits="userSpaceOnUse"
       gradientTransform="translate(4.0030387)"
       x1="177.47392"
       y1="85.937981"
       x2="1418.8431"
       y2="85.937981" />
    <linearGradient
       xlink:href="#linearGradient5186"
       id="linearGradient1148"
       gradientUnits="userSpaceOnUse"
       gradientTransform="translate(4.0030387)"
       x1="177.47392"
       y1="85.937981"
       x2="1418.8431"
       y2="85.937981" />
    <linearGradient
       xlink:href="#linearGradient5186"
       id="linearGradient1150"
       gradientUnits="userSpaceOnUse"
       gradientTransform="translate(4.0030387)"
       x1="177.47392"
       y1="85.937981"
       x2="1418.8431"
       y2="85.937981" />
    <linearGradient
       xlink:href="#linearGradient5186"
       id="linearGradient1152"
       gradientUnits="userSpaceOnUse"
       gradientTransform="translate(4.0030387)"
       x1="177.47392"
       y1="85.937981"
       x2="1418.8431"
       y2="85.937981" />
    <linearGradient
       xlink:href="#linearGradient5186"
       id="linearGradient1154"
       gradientUnits="userSpaceOnUse"
       gradientTransform="translate(4.0030387)"
       x1="177.47392"
       y1="85.937981"
       x2="1418.8431"
       y2="85.937981" />
  </defs>
  <rect
     style="fill:#ffffff;fill-opacity:1;stroke-width:1.2;stroke-linejoin:round;stroke-miterlimit:10;paint-order:fill markers stroke"
     id="rect1036"
     width="1678.3798"
     height="262.18536"
     x="-9.9125099"
     y="-13.966054" />
  <g
     aria-label="®"
     id="text28081-6"
     style="font-size:86.4484px;line-height:1.25;fill:#ef2008;stroke-width:1.18041"
     transform="matrix(1.0653771,0,0,1.0653771,24.999998,25.000002)">
    <path
       d="m 1501.8156,31.29432 q 0,7.348114 -2.4205,13.226606 -2.4206,5.792043 -6.4836,9.855118 -4.0631,3.976626 -9.4229,6.137836 -5.3598,2.074762 -11.2383,2.074762 -5.8785,0 -11.2383,-2.074762 -5.3598,-2.16121 -9.4229,-6.137836 -4.063,-4.063075 -6.4836,-9.855118 -2.4206,-5.878492 -2.4206,-13.226606 0,-7.348114 2.4206,-13.140157 2.4206,-5.878491 6.4836,-9.8551178 4.0631,-4.0630749 9.4229,-6.1378366 5.3598,-2.161210011438 11.2383,-2.161210011438 5.8785,0 11.2383,2.161210011438 5.3598,2.0747617 9.4229,6.1378366 4.063,3.9766268 6.4836,9.8551178 2.4205,5.792043 2.4205,13.140157 z m -6.3107,0 q 0,-5.705594 -1.729,-10.373808 -1.7289,-4.754662 -4.8411,-8.12615 -3.0257,-3.3714875 -7.3481,-5.186904 -4.2359,-1.8154165 -9.3364,-1.8154165 -5.1005,0 -9.4229,1.8154165 -4.236,1.8154165 -7.3481,5.186904 -3.0257,3.371488 -4.7547,8.12615 -1.7289,4.668214 -1.7289,10.373808 0,5.705595 1.7289,10.460257 1.729,4.668214 4.7547,8.039701 3.1121,3.371488 7.3481,5.186905 4.3224,1.815416 9.4229,1.815416 5.1005,0 9.3364,-1.815416 4.3224,-1.815417 7.3481,-5.186905 3.1122,-3.371487 4.8411,-8.039701 1.729,-4.754662 1.729,-10.460257 z m -14.6962,17.203232 q -1.9883,-3.890178 -4.4953,-7.348114 -2.4206,-3.544384 -4.236,-5.619146 h -5.792 v 12.96726 h -6.1379 v -33.54198 q 2.3341,-0.51869 4.9276,-0.778035 2.5934,-0.259346 4.7546,-0.259346 7.4346,0 11.3248,2.766349 3.8902,2.766349 3.8902,8.385495 0,3.198591 -1.729,5.619146 -1.6425,2.334107 -4.7547,3.630833 0.8645,1.037381 1.9883,2.593452 1.1239,1.556072 2.3341,3.457937 1.2103,1.901864 2.4206,3.976626 1.2103,2.074762 2.1612,4.149523 z m -14.5233,-17.981267 h 3.285 q 3.8902,0 6.4836,-1.037381 2.5935,-1.123829 2.5935,-4.495317 0,-3.198591 -2.507,-4.408869 -2.4206,-1.296726 -5.8785,-1.296726 -0.951,0 -1.9883,0.08645 -1.0374,0 -1.9883,0.08645 z"
       style="font-family:Ubuntu;-inkscape-font-specification:Ubuntu;stroke-width:1.18041"
       id="path7990" />
  </g>
  <g
     aria-label="RIVACYSAFE"
     transform="matrix(1.0645676,0,0,1.0661872,24.999998,25.000002)"
     id="text9133"
     style="font-size:218.667px;line-height:1.25;font-family:Ubuntu;-inkscape-font-specification:'Ubuntu, Normal';fill:url(#linearGradient861);stroke-width:0.938634">
    <path
       d="M 181.47699,9.4045303 H 211.2157 V 162.47144 h -29.73871 z m 12.02668,73.9094487 h 40.89073 v 25.802711 h -40.89073 z m 40.89073,0 q 11.15202,0 19.02403,-2.18667 8.09068,-2.18667 12.24535,-7.434678 4.37334,-5.248009 4.37334,-14.432023 0,-9.402681 -4.37334,-14.432022 -4.15467,-5.248009 -12.24535,-7.434679 -7.87201,-2.18667 -19.02403,-2.18667 V 9.4045303 q 19.8987,0 34.76806,4.8106737 15.08802,4.592008 23.39737,15.525358 8.52801,10.93335 8.52801,29.520046 0,18.368029 -8.52801,29.520046 -8.30935,10.93335 -23.39737,15.744026 -14.86936,4.59201 -34.76806,4.59201 z M 193.50367,9.4045303 H 234.3944 V 35.207237 h -40.89073 z m 43.95207,82.4374617 h 29.73871 l 34.33072,70.629448 h -33.89338 z"
       style="font-weight:600;font-family:'Stack Sans Headline';-inkscape-font-specification:'Stack Sans Headline Semi-Bold';fill:url(#linearGradient1136);stroke-width:0.938634"
       id="path8020" />
    <path
       d="m 322.0798,9.4045303 h 29.73871 V 162.47144 H 322.0798 Z"
       style="font-weight:600;font-family:'Stack Sans Headline';-inkscape-font-specification:'Stack Sans Headline Semi-Bold';fill:url(#linearGradient1138);stroke-width:0.938634"
       id="path8017" />
    <path
       d="M 414.79432,162.47144 367.99958,9.4045303 H 398.3943 L 443.22104,162.47144 Z m 41.98407,0 H 428.35168 L 473.39708,9.4045303 h 30.61338 z"
       style="font-weight:600;font-family:'Stack Sans Headline';-inkscape-font-specification:'Stack Sans Headline Semi-Bold';fill:url(#linearGradient1140);stroke-width:0.938634"
       id="path8014" />
    <path
       d="m 541.62076,9.4045303 h 28.42671 L 525.22073,162.47144 h -30.39471 z m 41.98406,0 47.23207,153.0669097 H 600.22351 L 555.17811,9.4045303 Z m -62.3201,94.2454797 h 82.43747 v 25.80271 h -82.43747 z"
       style="font-weight:600;font-family:'Stack Sans Headline';-inkscape-font-specification:'Stack Sans Headline Semi-Bold';fill:url(#linearGradient1142);stroke-width:0.938634"
       id="path8011" />
    <path
       d="m 779.74863,100.15134 q -1.53067,19.68003 -10.05869,34.54939 -8.30934,14.86935 -23.39737,23.1787 -14.86935,8.09068 -36.51739,8.09068 -24.27204,0 -41.32806,-10.71469 -16.83736,-10.93335 -25.58404,-29.08271 -8.74668,-18.14936 -8.74668,-40.453394 0,-16.400026 4.81067,-30.832048 5.02934,-14.65069 14.65069,-25.58404 9.62135,-10.93335 23.61604,-17.056027 14.21335,-6.3413428 32.58138,-6.3413428 30.83205,0 48.10674,16.4000258 17.49336,16.181358 20.99204,43.733401 h -31.70672 q -1.09333,-7.434678 -3.71734,-13.338687 -2.624,-6.122676 -7.21601,-10.496017 -4.37334,-4.37334 -10.93335,-6.778677 -6.56001,-2.405337 -15.52536,-2.405337 -15.52535,0 -25.58404,7.653345 -9.84001,7.434679 -14.43202,19.461364 -4.59201,12.026685 -4.59201,25.58404 0,13.557354 4.59201,25.802704 4.59201,12.02669 14.43202,19.68003 10.05869,7.43468 25.58404,7.43468 9.84002,0 16.83736,-2.84267 6.99735,-2.84267 11.58935,-7.87201 4.81068,-5.24801 7.21601,-12.24535 2.40534,-6.99735 3.06134,-15.52536 z"
       style="font-weight:600;font-family:'Stack Sans Headline';-inkscape-font-specification:'Stack Sans Headline Semi-Bold';fill:url(#linearGradient1144);stroke-width:0.938634"
       id="path8008" />
    <path
       d="M 832.44721,119.6127 779.96713,9.4045303 h 30.61338 l 36.73606,80.0321247 h -7.87201 L 875.96195,9.4045303 h 30.61338 L 854.09524,119.6127 Z m -4.15467,-32.362715 h 29.95738 v 75.221455 h -29.95738 z"
       style="font-weight:600;font-family:'Stack Sans Headline';-inkscape-font-specification:'Stack Sans Headline Semi-Bold';fill:url(#linearGradient1146);stroke-width:0.938634"
       id="path8005" />
    <path
       d="m 941.78017,113.70869 q 0.87466,7.65335 5.248,13.33869 4.37334,5.68534 11.37069,8.74668 7.21601,2.84267 16.18136,2.84267 12.02668,0 20.11736,-4.15467 8.30932,-4.37334 8.30932,-13.33869 0,-6.34134 -5.02931,-9.84001 -4.81068,-3.71734 -13.12002,-5.90401 -8.09068,-2.40534 -17.71203,-4.37334 -9.62135,-2.186674 -19.46136,-5.248012 -9.62135,-3.280005 -17.71203,-8.528013 -8.09068,-5.248008 -13.12002,-13.994688 -4.81068,-8.746681 -4.81068,-22.304035 0,-13.120021 7.65335,-23.178703 7.65334,-10.277349 21.2107,-15.962692 13.77602,-5.9040088 31.48805,-5.9040088 16.83736,0 30.17605,6.7786768 13.3387,6.778678 21.2107,18.586696 7.872,11.808018 7.872,26.677375 h -31.488 q -0.87471,-11.808018 -8.09072,-18.368029 -6.99735,-6.56001 -20.77337,-6.56001 -13.77602,0 -20.99203,5.029341 -7.21601,5.029341 -7.21601,12.901354 0,6.997344 4.81067,10.93335 5.02934,3.717339 13.12002,6.341343 8.09068,2.405337 17.71203,4.37334 9.84002,1.968004 19.46136,5.029342 9.62135,2.842671 17.71205,8.090679 8.3093,5.029341 13.12,13.557354 5.0293,8.52801 5.0293,21.8667 0,21.2107 -15.9626,33.01872 -15.9627,11.80802 -44.82678,11.80802 -17.71203,0 -31.70672,-6.77868 -13.99469,-6.77868 -22.30404,-18.5867 -8.30934,-11.80801 -8.96534,-26.89604 z"
       style="font-weight:600;font-family:'Stack Sans Headline';-inkscape-font-specification:'Stack Sans Headline Semi-Bold';fill:url(#linearGradient1148);stroke-width:0.938634"
       id="path8002" />
    <path
       d="m 1088.9427,9.4045303 h 28.4267 L 1072.5426,162.47144 h -30.3947 z m 41.984,0 47.2321,153.0669097 h -30.6134 L 1102.5,9.4045303 Z m -62.3201,94.2454797 h 82.4375 v 25.80271 h -82.4375 z"
       style="font-weight:600;font-family:'Stack Sans Headline';-inkscape-font-specification:'Stack Sans Headline Semi-Bold';fill:url(#linearGradient1150);stroke-width:0.938634"
       id="path7999" />
    <path
       d="m 1194.1211,9.4045303 h 29.7387 V 162.47144 h -29.7387 z m 28.4267,67.5681057 h 67.1308 v 25.802704 h -67.1308 z m -16.4,-67.5681057 h 92.2775 V 35.425904 h -92.2775 z"
       style="font-weight:600;font-family:'Stack Sans Headline';-inkscape-font-specification:'Stack Sans Headline Semi-Bold';fill:url(#linearGradient1152);stroke-width:0.938634"
       id="path7996" />
    <path
       d="M 1315.918,162.47144 V 9.4045303 h 106.0535 V 35.425904 h -76.3148 v 37.173391 h 67.5681 v 25.802707 h -67.5681 v 38.048058 h 77.1895 v 26.02138 z"
       style="font-weight:600;font-family:'Stack Sans Headline';-inkscape-font-specification:'Stack Sans Headline Semi-Bold';fill:url(#linearGradient1154);stroke-width:0.938634"
       id="path7993" />
  </g>
  <path
     id="path7981"
     style="fill:url(#linearGradient9555-6-0-7);fill-opacity:1;stroke:none;stroke-width:3.14001"
     d="M 183.26982,56.947926 C 162.30744,20.77069 120.28188,17.715568 81.382633,38.409401 l 17.603789,30.527394 c 22.799528,-11.177029 43.739128,-14.04827 54.983998,5.321505 11.13342,19.434994 -0.76022,37.99376 -21.82865,52.17442 l 17.34818,30.08414 c 37.39708,-23.41136 54.68562,-63.297407 33.77987,-99.568934 z" />
  <path
     id="path7984"
     style="fill:url(#linearGradient15669);fill-opacity:1;stroke:none;stroke-width:3.14001"
     d="m 59.979726,26.747626 -19.6896,11.38149 98.429804,170.690844 19.68961,-11.3815 z" />
  <path
     id="path7987"
     style="fill:url(#linearGradient1031);fill-opacity:1;stroke:none;stroke-width:3.14002"
     d="M 39.675903,62.517732 C 22.006669,89.879898 19.583135,125.03555 36.28897,154.14413 c 16.801977,29.12209 48.471188,44.65585 81.02791,43.01374 z" />
  <rect
     style="fill:none;stroke-width:1.2;stroke-linejoin:round;stroke-miterlimit:10;paint-order:fill markers stroke"
     id="rect1010"
     width="1173.543"
     height="502.5303"
     x="-64.8731"
     y="-97.83094" />
  <rect
     style="fill:none;stroke-width:1.2;stroke-linejoin:round;stroke-miterlimit:10;paint-order:fill markers stroke"
     id="rect1012"
     width="1401.6746"
     height="721.4397"
     x="-106.59067"
     y="-225.33824" />
</svg>
