<?xml version="1.0" encoding="UTF-8"?>
<svg width="192" height="192" version="1.1" viewBox="0 0 192 192" xmlns="http://www.w3.org/2000/svg" xmlns:xlink="http://www.w3.org/1999/xlink">
 <defs>
  <linearGradient id="linearGradient9555-6-0-7" x1="51.714" x2="210.4" y1="99.77" y2="99.77" gradientTransform="matrix(.70336 0 0 .74173 1325.6 185.44)" gradientUnits="userSpaceOnUse">
   <stop stop-color="#ef2008" offset="0"/>
   <stop stop-color="#ff6428" offset="1"/>
  </linearGradient>
  <linearGradient id="linearGradient15669" x1="115.86" x2="301.39" y1="186" y2="186" gradientTransform="matrix(.50084 .86748 -.86603 .5 505.47 -13.411)" gradientUnits="userSpaceOnUse" xlink:href="#linearGradient1884"/>
  <linearGradient id="linearGradient1031" x1="412.81" x2="499.96" y1="252.29" y2="252.29" gradientUnits="userSpaceOnUse" xlink:href="#linearGradient1884"/>
  <linearGradient id="linearGradient1884">
   <stop stop-color="#157ee9" offset="0"/>
   <stop stop-color="#3ecc78" offset="1"/>
  </linearGradient>
 </defs>
 <g transform="matrix(1.1099 0 0 1.1112 -449.81 -171.05)" stroke-width=".90043">
  <g transform="matrix(.65785 1.1394 -1.1394 .65785 -136.92 -1555.3)" stroke-width=".68438">
   <path d="m1410.2 200.59c-29.973 0.0625-46.946 25.082-48.058 56.668h25.262c1.2426-18.172 6.9728-32.213 23.028-32.259 16.056 0.0459 23.308 14.086 24.55 32.259h24.895c-1.1135-31.627-19.666-56.662-49.677-56.668z" fill="url(#linearGradient9555-6-0-7)"/>
  </g>
  <path d="m445.84 155.04-18.587 10.731 92.92 160.94 18.587-10.731z" fill="url(#linearGradient15669)"/>
  <path d="m426.67 188.76c-16.68 25.799-18.968 58.947-3.1973 86.393 15.861 27.459 45.758 42.105 76.492 40.557z" fill="url(#linearGradient1031)"/>
 </g>
</svg>
