<?xml version="1.0" encoding="UTF-8"?>
<svg width="192" height="192.02" version="1.1" viewBox="0 0 192 192.02" xmlns="http://www.w3.org/2000/svg" xmlns:xlink="http://www.w3.org/1999/xlink">
 <defs>
  <linearGradient id="linearGradient1884">
   <stop stop-color="#157ee9" offset="0"/>
   <stop stop-color="#3ecc78" offset="1"/>
  </linearGradient>
  <linearGradient id="linearGradient11950" x1="115.86" x2="301.39" y1="186" y2="186" gradientTransform="matrix(.98099 0 0 .98226 -108.66 -33.95)" gradientUnits="userSpaceOnUse" xlink:href="#linearGradient1884"/>
  <linearGradient id="linearGradient11952" x1="115.86" x2="301.39" y1="186" y2="186" gradientTransform="matrix(1.0269 0 1.2e-8 1.0738 -119.43 -76.017)" gradientUnits="userSpaceOnUse" xlink:href="#linearGradient1884"/>
  <linearGradient id="linearGradient2861" x1="51.714" x2="210.4" y1="99.77" y2="99.77" gradientTransform="matrix(.70336 0 0 .74173 1325.6 185.44)" gradientUnits="userSpaceOnUse">
   <stop stop-color="#ef2008" offset="0"/>
   <stop stop-color="#ff6428" offset="1"/>
  </linearGradient>
 </defs>
 <g transform="matrix(1.2885 -1.563e-8 1.5584e-8 1.2924 -1730.9 -244.74)" stroke-width=".77494">
  <path d="m1417.8 200.59c-29.973 0.0625-54.547 25.082-55.659 56.668h25.262c1.2426-18.172 14.573-32.213 30.629-32.259 16.056 0.0459 29.388 14.086 30.63 32.259h24.895c-1.1135-31.627-25.746-56.662-55.758-56.668z" fill="url(#linearGradient2861)"/>
 </g>
 <path d="m5 99.512v21.082l182 1e-5v-21.082z" fill="url(#linearGradient11950)"/>
 <path d="m24.219 132.38c13.714 26.86 40.707 45.086 71.707 45.15 31.056-7e-3 58.117-18.245 71.854-45.15z" fill="url(#linearGradient11952)"/>
</svg>
