<?xml version="1.0" encoding="UTF-8" standalone="no"?>
<svg
   version="1.1"
   viewBox="0 0 1727.9863 222.53629"
   id="svg12"
   width="1727.9865"
   height="222.53629"
   xmlns:xlink="http://www.w3.org/1999/xlink"
   xmlns="http://www.w3.org/2000/svg"
   xmlns:svg="http://www.w3.org/2000/svg">
  <defs
     id="defs16">
    <linearGradient
       id="linearGradient5186">
      <stop
         style="stop-color:#ef2008;stop-opacity:1"
         offset="0"
         id="stop5182" />
      <stop
         style="stop-color:#ff6428;stop-opacity:1"
         offset="1"
         id="stop5184" />
    </linearGradient>
    <linearGradient
       xlink:href="#linearGradient5186"
       id="linearGradient17039"
       gradientUnits="userSpaceOnUse"
       gradientTransform="matrix(1.2079295,0,0,1.2079295,80.207938,-69.700174)"
       x1="225.77231"
       y1="173.93456"
       x2="1111.1683"
       y2="173.93456" />
    <linearGradient
       xlink:href="#linearGradient5186"
       id="linearGradient17043"
       gradientUnits="userSpaceOnUse"
       gradientTransform="matrix(1.6316181,0,0,1.6316181,1218.8357,-287.54031)"
       x1="225.77231"
       y1="173.93456"
       x2="1111.1683"
       y2="173.93456" />
    <linearGradient
       xlink:href="#linearGradient5186"
       id="linearGradient11474"
       x1="208.5686"
       y1="115.51498"
       x2="1585.5112"
       y2="115.51498"
       gradientUnits="userSpaceOnUse"
       gradientTransform="translate(-13.930731,-31.731972)" />
    <linearGradient
       xlink:href="#linearGradient5186"
       id="linearGradient9555-6-0-7"
       gradientUnits="userSpaceOnUse"
       gradientTransform="matrix(0.49013865,0.84996785,-0.89525252,0.51749706,142.61554,-55.832112)"
       x1="51.713676"
       y1="99.769508"
       x2="210.40228"
       y2="99.769508" />
    <linearGradient
       xlink:href="#linearGradient1884"
       id="linearGradient15669"
       gradientUnits="userSpaceOnUse"
       gradientTransform="matrix(0.53054057,0.92003037,-0.91737816,0.53028668,123.15539,-151.902)"
       x1="115.86406"
       y1="186.00212"
       x2="301.39139"
       y2="186.00212" />
    <linearGradient
       xlink:href="#linearGradient5186"
       id="linearGradient861"
       x1="177.47392"
       y1="85.937981"
       x2="1418.8431"
       y2="85.937981"
       gradientUnits="userSpaceOnUse"
       gradientTransform="translate(4.0030387)" />
    <linearGradient
       xlink:href="#linearGradient1884"
       id="linearGradient1031"
       x1="412.81375"
       y1="252.29321"
       x2="499.96292"
       y2="252.29321"
       gradientUnits="userSpaceOnUse"
       gradientTransform="matrix(1.0592971,0,0,1.0605733,-412.29238,-137.6786)" />
    <linearGradient
       id="linearGradient1884">
      <stop
         style="stop-color:#157ee9;stop-opacity:1"
         offset="0"
         id="stop1880" />
      <stop
         style="stop-color:#3ecc78;stop-opacity:1"
         offset="1"
         id="stop1882" />
    </linearGradient>
    <linearGradient
       xlink:href="#linearGradient5186"
       id="linearGradient11952"
       gradientUnits="userSpaceOnUse"
       gradientTransform="matrix(1.083364,0,1.2659322e-8,1.1327536,-106.26722,-69.943119)"
       x1="115.86406"
       y1="186.00212"
       x2="301.39139"
       y2="186.00212" />
    <linearGradient
       xlink:href="#linearGradient1884"
       id="linearGradient11950"
       gradientUnits="userSpaceOnUse"
       gradientTransform="matrix(1.0348879,0,0,1.0362304,-94.90632,-25.564909)"
       x1="115.86406"
       y1="186.00212"
       x2="301.39139"
       y2="186.00212" />
    <linearGradient
       xlink:href="#linearGradient5186"
       id="linearGradient861-6"
       x1="177.47392"
       y1="85.937981"
       x2="1418.8431"
       y2="85.937981"
       gradientUnits="userSpaceOnUse"
       gradientTransform="translate(44.204329)" />
    <linearGradient
       xlink:href="#linearGradient5186"
       id="linearGradient12413"
       gradientUnits="userSpaceOnUse"
       gradientTransform="translate(44.204329)"
       x1="177.47392"
       y1="85.937981"
       x2="1418.8431"
       y2="85.937981" />
    <linearGradient
       xlink:href="#linearGradient5186"
       id="linearGradient12415"
       gradientUnits="userSpaceOnUse"
       gradientTransform="translate(44.204329)"
       x1="177.47392"
       y1="85.937981"
       x2="1418.8431"
       y2="85.937981" />
    <linearGradient
       xlink:href="#linearGradient5186"
       id="linearGradient12417"
       gradientUnits="userSpaceOnUse"
       gradientTransform="translate(44.204329)"
       x1="177.47392"
       y1="85.937981"
       x2="1418.8431"
       y2="85.937981" />
    <linearGradient
       xlink:href="#linearGradient5186"
       id="linearGradient12419"
       gradientUnits="userSpaceOnUse"
       gradientTransform="translate(44.204329)"
       x1="177.47392"
       y1="85.937981"
       x2="1418.8431"
       y2="85.937981" />
    <linearGradient
       xlink:href="#linearGradient5186"
       id="linearGradient12421"
       gradientUnits="userSpaceOnUse"
       gradientTransform="translate(44.204329)"
       x1="177.47392"
       y1="85.937981"
       x2="1418.8431"
       y2="85.937981" />
    <linearGradient
       xlink:href="#linearGradient5186"
       id="linearGradient12423"
       gradientUnits="userSpaceOnUse"
       gradientTransform="translate(44.204329)"
       x1="177.47392"
       y1="85.937981"
       x2="1418.8431"
       y2="85.937981" />
    <linearGradient
       xlink:href="#linearGradient5186"
       id="linearGradient12425"
       gradientUnits="userSpaceOnUse"
       gradientTransform="translate(44.204329)"
       x1="177.47392"
       y1="85.937981"
       x2="1418.8431"
       y2="85.937981" />
    <linearGradient
       xlink:href="#linearGradient5186"
       id="linearGradient12427"
       gradientUnits="userSpaceOnUse"
       gradientTransform="translate(44.204329)"
       x1="177.47392"
       y1="85.937981"
       x2="1418.8431"
       y2="85.937981" />
    <linearGradient
       xlink:href="#linearGradient5186"
       id="linearGradient12429"
       gradientUnits="userSpaceOnUse"
       gradientTransform="translate(44.204329)"
       x1="177.47392"
       y1="85.937981"
       x2="1418.8431"
       y2="85.937981" />
    <linearGradient
       xlink:href="#linearGradient5186"
       id="linearGradient12431"
       gradientUnits="userSpaceOnUse"
       gradientTransform="translate(44.204329)"
       x1="177.47392"
       y1="85.937981"
       x2="1418.8431"
       y2="85.937981" />
    <linearGradient
       xlink:href="#linearGradient5186"
       id="linearGradient12433"
       gradientUnits="userSpaceOnUse"
       gradientTransform="translate(44.204329)"
       x1="177.47392"
       y1="85.937981"
       x2="1418.8431"
       y2="85.937981" />
    <linearGradient
       xlink:href="#linearGradient5186"
       id="linearGradient9555-6-0-7-2"
       gradientUnits="userSpaceOnUse"
       gradientTransform="matrix(0.70335903,0,0,0.74172525,1325.6305,185.44122)"
       x1="51.713676"
       y1="99.769508"
       x2="210.40228"
       y2="99.769508" />
    <linearGradient
       xlink:href="#linearGradient1884"
       id="linearGradient15669-0"
       gradientUnits="userSpaceOnUse"
       gradientTransform="matrix(0.5008421,0.86748396,-0.8660254,0.5,505.47461,-13.41105)"
       x1="115.86406"
       y1="186.00212"
       x2="301.39139"
       y2="186.00212" />
    <linearGradient
       xlink:href="#linearGradient1884"
       id="linearGradient1031-5"
       x1="412.81375"
       y1="252.29321"
       x2="499.96292"
       y2="252.29321"
       gradientUnits="userSpaceOnUse" />
    <linearGradient
       xlink:href="#linearGradient1884"
       id="linearGradient2995"
       x1="122.06052"
       y1="131.13593"
       x2="344.73987"
       y2="130.72453"
       gradientUnits="userSpaceOnUse"
       gradientTransform="matrix(1.1973119,1.4299711e-8,0,1.1973111,-129.28308,-41.767229)" />
    <linearGradient
       xlink:href="#linearGradient5186"
       id="linearGradient2720"
       x1="162.25932"
       y1="131.28523"
       x2="258.85034"
       y2="131.28523"
       gradientUnits="userSpaceOnUse"
       gradientTransform="matrix(0.57023338,0.98767319,-0.98767272,0.57023311,131.8666,-167.78222)" />
  </defs>
  <rect
     style="fill:#000000;fill-opacity:1;stroke-width:1.2;stroke-linejoin:round;stroke-miterlimit:10;paint-order:fill markers stroke"
     id="rect1036"
     width="1744.3347"
     height="262.18536"
     x="-2.3069782"
     y="-24.008345" />
  <g
     aria-label="®"
     id="text28081-6-0"
     style="font-size:86.4484px;line-height:1.25;fill:#ef2008;stroke-width:1.25758"
     transform="translate(25,25.000001)">
    <path
       d="m 1677.9864,31.29432 q 0,7.348114 -2.4205,13.226606 -2.4206,5.792043 -6.4837,9.855118 -4.063,3.976626 -9.4228,6.137836 -5.3598,2.074762 -11.2383,2.074762 -5.8785,0 -11.2383,-2.074762 -5.3598,-2.16121 -9.4229,-6.137836 -4.0631,-4.063075 -6.4836,-9.855118 -2.4206,-5.878492 -2.4206,-13.226606 0,-7.348114 2.4206,-13.140157 2.4205,-5.878491 6.4836,-9.8551178 4.0631,-4.0630749 9.4229,-6.1378366 5.3598,-2.161210011438 11.2383,-2.161210011438 5.8785,0 11.2383,2.161210011438 5.3598,2.0747617 9.4228,6.1378366 4.0631,3.9766268 6.4837,9.8551178 2.4205,5.792043 2.4205,13.140157 z m -6.3107,0 q 0,-5.705594 -1.729,-10.373808 -1.7289,-4.754662 -4.8411,-8.12615 -3.0257,-3.3714875 -7.3481,-5.186904 -4.236,-1.8154165 -9.3364,-1.8154165 -5.1005,0 -9.4229,1.8154165 -4.236,1.8154165 -7.3481,5.186904 -3.0257,3.371488 -4.7547,8.12615 -1.7289,4.668214 -1.7289,10.373808 0,5.705595 1.7289,10.460257 1.729,4.668214 4.7547,8.039701 3.1121,3.371488 7.3481,5.186905 4.3224,1.815416 9.4229,1.815416 5.1004,0 9.3364,-1.815416 4.3224,-1.815417 7.3481,-5.186905 3.1122,-3.371487 4.8411,-8.039701 1.729,-4.754662 1.729,-10.460257 z m -14.6962,17.203232 q -1.9883,-3.890178 -4.4954,-7.348114 -2.4205,-3.544384 -4.2359,-5.619146 h -5.7921 v 12.96726 h -6.1378 v -33.54198 q 2.3341,-0.51869 4.9276,-0.778035 2.5934,-0.259346 4.7546,-0.259346 7.4346,0 11.3248,2.766349 3.8901,2.766349 3.8901,8.385495 0,3.198591 -1.7289,5.619146 -1.6426,2.334107 -4.7547,3.630833 0.8645,1.037381 1.9883,2.593452 1.1238,1.556072 2.3341,3.457937 1.2103,1.901864 2.4206,3.976626 1.2103,2.074762 2.1612,4.149523 z m -14.5234,-17.981267 h 3.2851 q 3.8901,0 6.4836,-1.037381 2.5935,-1.123829 2.5935,-4.495317 0,-3.198591 -2.507,-4.408869 -2.4206,-1.296726 -5.8785,-1.296726 -0.951,0 -1.9884,0.08645 -1.0373,0 -1.9883,0.08645 z"
       style="font-family:Ubuntu;-inkscape-font-specification:Ubuntu"
       id="path11472" />
  </g>
  <g
     aria-label="PRIVACYSAFE"
     transform="matrix(0.99924018,0,0,1.0007604,25,25.000001)"
     id="text9133-2"
     style="font-size:218.667px;line-height:1.25;font-family:Ubuntu;-inkscape-font-specification:'Ubuntu, Normal';fill:url(#linearGradient861-6);stroke-width:0.999999">
    <path
       d="m 221.67828,9.4045303 h 29.73871 V 162.47144 h -29.73871 z m 12.02669,76.0961187 h 40.23472 v 25.802711 h -40.23472 z m 40.23472,0 q 11.15202,0 19.02403,-1.968003 8.09068,-2.18667 12.24536,-7.434678 4.37334,-5.466676 4.37334,-15.744025 0,-10.277349 -4.37334,-15.525357 -4.15468,-5.466676 -12.24536,-7.434679 -7.87201,-2.18667 -19.02403,-2.18667 V 9.4045303 q 20.11737,0 34.98673,5.0293417 15.08802,4.810674 23.39737,15.962691 8.30934,11.152017 8.30934,29.95738 0,18.368029 -8.30934,29.738713 -8.30935,11.370684 -23.39737,16.400024 -14.86936,4.81068 -34.98673,4.81068 z M 233.70497,9.4045303 h 40.23472 V 35.207237 h -40.23472 z"
       style="font-weight:600;font-family:'Stack Sans Headline';-inkscape-font-specification:'Stack Sans Headline Semi-Bold';fill:url(#linearGradient12413)"
       id="path11505" />
    <path
       d="m 357.2516,9.4045303 h 29.73871 V 162.47144 H 357.2516 Z m 12.02668,73.9094487 h 40.89073 v 25.802711 h -40.89073 z m 40.89073,0 q 11.15202,0 19.02403,-2.18667 8.09068,-2.18667 12.24536,-7.434678 4.37334,-5.248009 4.37334,-14.432023 0,-9.402681 -4.37334,-14.432022 -4.15468,-5.248009 -12.24536,-7.434679 -7.87201,-2.18667 -19.02403,-2.18667 V 9.4045303 q 19.8987,0 34.76806,4.8106737 15.08802,4.592008 23.39737,15.525358 8.52801,10.93335 8.52801,29.520046 0,18.368029 -8.52801,29.520046 -8.30935,10.93335 -23.39737,15.744026 -14.86936,4.59201 -34.76806,4.59201 z M 369.27828,9.4045303 h 40.89073 V 35.207237 h -40.89073 z m 43.95207,82.4374617 h 29.73872 l 34.33072,70.629448 H 443.4064 Z"
       style="font-weight:600;font-family:'Stack Sans Headline';-inkscape-font-specification:'Stack Sans Headline Semi-Bold';fill:url(#linearGradient12415)"
       id="path11502" />
    <path
       d="m 497.85443,9.4045303 h 29.73871 V 162.47144 h -29.73871 z"
       style="font-weight:600;font-family:'Stack Sans Headline';-inkscape-font-specification:'Stack Sans Headline Semi-Bold';fill:url(#linearGradient12417)"
       id="path11499" />
    <path
       d="M 590.56894,162.47144 543.7742,9.4045303 h 30.39471 L 618.99565,162.47144 Z m 41.98406,0 H 604.12629 L 649.17169,9.4045303 h 30.61339 z"
       style="font-weight:600;font-family:'Stack Sans Headline';-inkscape-font-specification:'Stack Sans Headline Semi-Bold';fill:url(#linearGradient12419)"
       id="path11496" />
    <path
       d="m 717.39535,9.4045303 h 28.42671 L 700.99533,162.47144 h -30.39472 z m 41.98407,0 47.23207,153.0669097 H 775.99811 L 730.95271,9.4045303 Z m -62.3201,94.2454797 h 82.43746 v 25.80271 h -82.43746 z"
       style="font-weight:600;font-family:'Stack Sans Headline';-inkscape-font-specification:'Stack Sans Headline Semi-Bold';fill:url(#linearGradient12421)"
       id="path11493" />
    <path
       d="m 955.52325,100.15134 q -1.53067,19.68003 -10.05868,34.54939 -8.30935,14.86935 -23.39737,23.1787 -14.86936,8.09068 -36.51739,8.09068 -24.27204,0 -41.32806,-10.71469 -16.83736,-10.93335 -25.58404,-29.08271 -8.74668,-18.14936 -8.74668,-40.453394 0,-16.400026 4.81067,-30.832048 5.02934,-14.65069 14.65069,-25.58404 9.62135,-10.93335 23.61604,-17.056027 14.21335,-6.3413428 32.58138,-6.3413428 30.83205,0 48.10674,16.4000258 17.49336,16.181358 20.99203,43.733401 h -31.70671 q -1.09334,-7.434678 -3.71734,-13.338687 -2.624,-6.122676 -7.21601,-10.496017 -4.37334,-4.37334 -10.93335,-6.778677 -6.56001,-2.405337 -15.52536,-2.405337 -15.52536,0 -25.58404,7.653345 -9.84001,7.434679 -14.43202,19.461364 -4.59201,12.026685 -4.59201,25.58404 0,13.557354 4.59201,25.802704 4.59201,12.02669 14.43202,19.68003 10.05868,7.43468 25.58404,7.43468 9.84002,0 16.83736,-2.84267 6.99734,-2.84267 11.58935,-7.87201 4.81068,-5.24801 7.21601,-12.24535 2.40534,-6.99735 3.06134,-15.52536 z"
       style="font-weight:600;font-family:'Stack Sans Headline';-inkscape-font-specification:'Stack Sans Headline Semi-Bold';fill:url(#linearGradient12423)"
       id="path11490" />
    <path
       d="M 1008.2218,119.6127 955.74173,9.4045303 h 30.61338 l 36.73609,80.0321247 h -7.872 l 36.5173,-80.0321247 h 30.6134 L 1029.8698,119.6127 Z m -4.1547,-32.362715 h 29.9574 v 75.221455 h -29.9574 z"
       style="font-weight:600;font-family:'Stack Sans Headline';-inkscape-font-specification:'Stack Sans Headline Semi-Bold';fill:url(#linearGradient12425)"
       id="path11487" />
    <path
       d="m 1117.5548,113.70869 q 0.8746,7.65335 5.248,13.33869 4.3733,5.68534 11.3707,8.74668 7.216,2.84267 16.1813,2.84267 12.0267,0 20.1174,-4.15467 8.3093,-4.37334 8.3093,-13.33869 0,-6.34134 -5.0293,-9.84001 -4.8107,-3.71734 -13.12,-5.90401 -8.0907,-2.40534 -17.7121,-4.37334 -9.6213,-2.186674 -19.4613,-5.248012 -9.6214,-3.280005 -17.7121,-8.528013 -8.0906,-5.248008 -13.12,-13.994688 -4.8106,-8.746681 -4.8106,-22.304035 0,-13.120021 7.6533,-23.178703 7.6533,-10.277349 21.2107,-15.962692 13.776,-5.9040088 31.488,-5.9040088 16.8374,0 30.1761,6.7786768 13.3387,6.778678 21.2107,18.586696 7.872,11.808018 7.872,26.677375 h -31.488 q -0.8747,-11.808018 -8.0907,-18.368029 -6.9974,-6.56001 -20.7734,-6.56001 -13.776,0 -20.992,5.029341 -7.216,5.029341 -7.216,12.901354 0,6.997344 4.8106,10.93335 5.0294,3.717339 13.1201,6.341343 8.0906,2.405337 17.712,4.37334 9.84,1.968004 19.4614,5.029342 9.6213,2.842671 17.712,8.090679 8.3093,5.029341 13.12,13.557354 5.0293,8.52801 5.0293,21.8667 0,21.2107 -15.9627,33.01872 -15.9626,11.80802 -44.8267,11.80802 -17.712,0 -31.7067,-6.77868 -13.9947,-6.77868 -22.304,-18.5867 -8.3094,-11.80801 -8.9654,-26.89604 z"
       style="font-weight:600;font-family:'Stack Sans Headline';-inkscape-font-specification:'Stack Sans Headline Semi-Bold';fill:url(#linearGradient12427)"
       id="path11484" />
    <path
       d="m 1264.7173,9.4045303 h 28.4267 L 1248.3172,162.47144 h -30.3947 z m 41.984,0 47.2321,153.0669097 H 1323.32 L 1278.2746,9.4045303 Z m -62.3201,94.2454797 h 82.4375 v 25.80271 h -82.4375 z"
       style="font-weight:600;font-family:'Stack Sans Headline';-inkscape-font-specification:'Stack Sans Headline Semi-Bold';fill:url(#linearGradient12429)"
       id="path11481" />
    <path
       d="m 1369.8957,9.4045303 h 29.7387 V 162.47144 h -29.7387 z m 28.4267,67.5681057 h 67.1308 v 25.802704 h -67.1308 z m -16.4,-67.5681057 h 92.2774 V 35.425904 h -92.2774 z"
       style="font-weight:600;font-family:'Stack Sans Headline';-inkscape-font-specification:'Stack Sans Headline Semi-Bold';fill:url(#linearGradient12431)"
       id="path11478" />
    <path
       d="M 1491.6927,162.47144 V 9.4045303 h 106.0535 V 35.425904 h -76.3148 v 37.173391 h 67.5681 v 25.802707 h -67.5681 v 38.048058 h 77.1895 v 26.02138 z"
       style="font-weight:600;font-family:'Stack Sans Headline';-inkscape-font-specification:'Stack Sans Headline Semi-Bold';fill:url(#linearGradient12433)"
       id="path11475" />
  </g>
  <path
     style="color:#000000;fill:url(#linearGradient2995);stroke-width:0.999998;stroke-linecap:round;-inkscape-stroke:none"
     d="m 203.33402,167.28753 4.66828,-8.09696 -25.5306,-14.7427 -1.3699,2.41352 c -0.6088,1.07247 -1.24583,2.12877 -1.91254,3.16621 l -1.56353,2.42984 z m 15.19278,-47.36509 6e-4,-9.35678 -29.68649,-10e-4 0.1506,2.89408 c 0.0324,0.63195 0.0537,1.26508 0.068,1.8977 -0.0211,0.54641 -0.0469,1.09199 -0.0814,1.63769 l -0.18588,2.92782 z m -43.9426,76.11082 -14.79779,-25.65371 -2.4112,1.48014 c -1.05677,0.64874 -2.13154,1.26757 -3.22321,1.85571 l -2.4941,1.34544 14.82007,25.66011 z m -47.37803,15.20953 -0.002,-29.74899 -2.88238,0.13779 c -0.51527,0.0246 -1.03158,0.043 -1.54735,0.0554 -0.66081,-0.0229 -1.32221,-0.0553 -1.98206,-0.0979 l -2.91589,-0.18766 -0.0123,2.9281 -8.6e-4,0.006 4.9e-4,26.90853 z m 78.84557,-138.820709 -4.66783,-8.09616 -2.38536,1.37588 -21.41038,12.36001 1.48105,2.40962 c 0.64337,1.04746 1.25746,2.11357 1.84202,3.19498 l 1.34574,2.48991 z m -46.41636,-12.06428 14.94831,-25.90248 -8.10755,-4.69131 -1.37621,2.38818 -13.53266,23.44376 2.45416,1.35592 c 1.08237,0.59798 2.14829,1.2268 3.1948,1.88561 z M 93.44673,174.99315 91.05799,173.61792 c -1.07346,-0.61716 -2.12757,-1.26516 -3.16432,-1.94213 l -2.24618,-1.74408 -2.2007,3.64032 -12.96292,22.4592 8.10754,4.6913 z m 33.75829,-125.634469 7e-4,-30.11443 -9.34165,-5.2e-4 -1e-4,2.75279 -5.7e-4,27.30517 2.89221,-0.14732 c 0.66099,-0.0333 1.32279,-0.0543 1.98444,-0.0679 0.51152,0.0215 1.02237,0.0485 1.53323,0.0819 z m -59.52221,102.937399 -1.4678,-2.40627 c -0.63863,-1.04759 -1.24711,-2.11367 -1.8265,-3.19513 l -1.34247,-2.50315 -2.46046,1.41925 -23.518814,13.5812 4.667817,8.09615 z m -11.03496,-32.37345 -0.133596,-2.88215 c -0.02534,-0.54317 -0.04373,-1.08622 -0.05548,-1.62992 0.02359,-0.63771 0.05527,-1.27629 0.09712,-1.91302 l 0.192861,-2.93245 -30.206316,5.3e-4 -1.2e-4,2.75283 -5.14e-4,6.60396 z m 36.98564,-64.096019 -15.04085,-26.06051 -2.38488,1.37811 -5.72202,3.31154 15.04085,26.06053 2.41238,-1.48596 c 1.05206,-0.64854 2.12125,-1.26741 3.20788,-1.85609 z m -25.74902,22.46906 -26.147188,-15.09611 -1.377249,2.38546 -3.293395,5.71019 26.003852,15.01724 1.36625,-2.42652 c 0.60272,-1.07311 1.23569,-2.12856 1.89922,-3.16523 z"
     id="rect918" />
  <path
     id="circle79"
     style="fill:url(#linearGradient2720);fill-opacity:1;stroke-width:3.99999"
     d="m 169.96549,87.500891 a 55.079426,55.079299 60 0 0 -69.33561,-23.02939 l 9.24823,16.01841 a 36.719616,36.719531 60 0 1 44.18688,16.19116 36.719616,36.719531 60 0 1 -8.06524,46.373309 l 9.24196,16.00756 a 55.079426,55.079299 60 0 0 14.72378,-71.561049 z m -80.0679,-16.89305 a 55.079426,55.079299 60 0 0 -15.33216,71.972289 55.079426,55.079299 60 0 0 69.99592,22.70809 l -9.21152,-15.95481 a 36.719616,36.719531 60 0 1 -44.88389,-15.93344 36.719616,36.719531 60 0 1 8.6584,-46.810959 z" />
</svg>
