<?xml version="1.0" encoding="UTF-8"?>
<svg width="192" height="192" version="1.1" viewBox="0 0 192 192" xmlns="http://www.w3.org/2000/svg" xmlns:xlink="http://www.w3.org/1999/xlink">
 <defs>
  <linearGradient id="linearGradient1884">
   <stop stop-color="#157ee9" offset="0"/>
   <stop stop-color="#3ecc78" offset="1"/>
  </linearGradient>
  <linearGradient id="linearGradient11950" x1="115.86" x2="301.39" y1="186" y2="186" gradientTransform="matrix(1.0349 0 0 1.0362 -119.91 -41.101)" gradientUnits="userSpaceOnUse" xlink:href="#linearGradient1884"/>
  <linearGradient id="linearGradient11952" x1="115.86" x2="301.39" y1="186" y2="186" gradientTransform="matrix(1.0834 0 1.2659e-8 1.1328 -131.27 -85.479)" gradientUnits="userSpaceOnUse" xlink:href="#linearGradient1884"/>
  <linearGradient id="linearGradient2861" x1="51.714" x2="210.4" y1="99.77" y2="99.77" gradientTransform="matrix(.70336 0 0 .74173 1325.6 185.44)" gradientUnits="userSpaceOnUse">
   <stop stop-color="#ef2008" offset="0"/>
   <stop stop-color="#ff6428" offset="1"/>
  </linearGradient>
 </defs>
 <g transform="matrix(1.3593 -1.6489e-8 1.644e-8 1.3634 -1831.3 -263.48)" stroke-width=".73458">
  <path d="m1417.8 200.59c-29.973 0.0625-54.547 25.082-55.659 56.668h25.262c1.2426-18.172 14.573-32.213 30.629-32.259 16.056 0.0459 29.388 14.086 30.63 32.259h24.895c-1.1135-31.627-25.746-56.662-55.758-56.668z" fill="url(#linearGradient2861)"/>
 </g>
 <path d="m0 99.694v22.241l192 1e-5v-22.241z" fill="url(#linearGradient11950)"/>
 <path d="m20.275 134.37c14.467 28.336 42.944 47.563 75.647 47.631 32.762-7e-3 61.31-19.248 75.802-47.631z" fill="url(#linearGradient11952)"/>
</svg>
