<?xml version="1.0" encoding="UTF-8" standalone="no"?>
<svg
   version="1.1"
   viewBox="0 0 366.26229 356.8415"
   id="svg12"
   sodipodi:docname="privacysafe_social_large_logo.svg"
   inkscape:export-filename="/home/professor/Desktop/privacysafe-social/privacysafe_social_large_logo.png"
   inkscape:export-xdpi="96"
   inkscape:export-ydpi="96"
   inkscape:version="1.1.2 (0a00cf5339, 2022-02-04)"
   width="366.2623"
   height="356.84149"
   xmlns:inkscape="http://www.inkscape.org/namespaces/inkscape"
   xmlns:sodipodi="http://sodipodi.sourceforge.net/DTD/sodipodi-0.dtd"
   xmlns:xlink="http://www.w3.org/1999/xlink"
   xmlns="http://www.w3.org/2000/svg"
   xmlns:svg="http://www.w3.org/2000/svg">
  <defs
     id="defs16">
    <linearGradient
       inkscape:collect="always"
       id="linearGradient886">
      <stop
         style="stop-color:#3771c8;stop-opacity:1"
         offset="0"
         id="stop882" />
      <stop
         style="stop-color:#2ca089;stop-opacity:1"
         offset="1"
         id="stop884" />
    </linearGradient>
    <linearGradient
       inkscape:collect="always"
       id="linearGradient5186">
      <stop
         style="stop-color:#ef2008;stop-opacity:1"
         offset="0"
         id="stop5182" />
      <stop
         style="stop-color:#ff6428;stop-opacity:1"
         offset="1"
         id="stop5184" />
    </linearGradient>
    <linearGradient
       inkscape:collect="always"
       xlink:href="#linearGradient886"
       id="linearGradient11474"
       gradientUnits="userSpaceOnUse"
       gradientTransform="matrix(0.46303176,0,0,0.46303176,-56.588306,251.53577)"
       x1="225.77231"
       y1="173.93456"
       x2="1111.1683"
       y2="173.93456" />
    <linearGradient
       inkscape:collect="always"
       xlink:href="#linearGradient1160"
       id="linearGradient1094-2"
       gradientUnits="userSpaceOnUse"
       gradientTransform="matrix(0.4787416,0,0,0.4787416,-61.976132,260.06994)"
       x1="239.09921"
       y1="174.31239"
       x2="855.43896"
       y2="174.31239" />
    <linearGradient
       inkscape:collect="always"
       id="linearGradient1160">
      <stop
         style="stop-color:#0d6eff;stop-opacity:1"
         offset="0"
         id="stop1156" />
      <stop
         style="stop-color:#45da64;stop-opacity:1"
         offset="1"
         id="stop1158" />
    </linearGradient>
    <linearGradient
       inkscape:collect="always"
       xlink:href="#linearGradient1160"
       id="linearGradient1207"
       gradientUnits="userSpaceOnUse"
       gradientTransform="matrix(0.4787416,0,0,0.4787416,-61.976131,260.06994)"
       x1="239.09921"
       y1="174.31239"
       x2="855.43896"
       y2="174.31239" />
    <linearGradient
       inkscape:collect="always"
       xlink:href="#linearGradient1160"
       id="linearGradient1422"
       gradientUnits="userSpaceOnUse"
       gradientTransform="matrix(0.4787416,0,0,0.4787416,-61.976131,260.06994)"
       x1="239.09921"
       y1="174.31239"
       x2="855.43896"
       y2="174.31239" />
    <linearGradient
       xlink:href="#linearGradient5186"
       id="linearGradient861-6"
       x1="177.47392"
       y1="85.937981"
       x2="1418.8431"
       y2="85.937981"
       gradientUnits="userSpaceOnUse"
       gradientTransform="translate(44.204329)" />
    <linearGradient
       id="linearGradient1884">
      <stop
         style="stop-color:#157ee9;stop-opacity:1"
         offset="0"
         id="stop1880" />
      <stop
         style="stop-color:#3ecc78;stop-opacity:1"
         offset="1"
         id="stop1882" />
    </linearGradient>
    <linearGradient
       inkscape:collect="always"
       xlink:href="#linearGradient1884"
       id="linearGradient2995-8"
       x1="122.06052"
       y1="131.13593"
       x2="344.73987"
       y2="130.72453"
       gradientUnits="userSpaceOnUse"
       gradientTransform="matrix(1.3240204,1.5813012e-8,0,1.3240194,-98.849286,-50.480148)" />
    <linearGradient
       inkscape:collect="always"
       xlink:href="#linearGradient5186"
       id="linearGradient2720-0"
       x1="162.25932"
       y1="131.28523"
       x2="258.85034"
       y2="131.28523"
       gradientUnits="userSpaceOnUse"
       gradientTransform="matrix(0.63057971,1.0921961,-1.0921956,0.63057941,189.93719,-189.83101)" />
    <linearGradient
       xlink:href="#linearGradient5186"
       id="linearGradient861-6-6"
       x1="177.47392"
       y1="85.937981"
       x2="1418.8431"
       y2="85.937981"
       gradientUnits="userSpaceOnUse"
       gradientTransform="translate(44.204329)" />
    <linearGradient
       inkscape:collect="always"
       xlink:href="#linearGradient5186"
       id="linearGradient5031"
       gradientUnits="userSpaceOnUse"
       gradientTransform="translate(44.204329)"
       x1="177.47392"
       y1="85.937981"
       x2="1418.8431"
       y2="85.937981" />
    <linearGradient
       inkscape:collect="always"
       xlink:href="#linearGradient5186"
       id="linearGradient5033"
       gradientUnits="userSpaceOnUse"
       gradientTransform="translate(44.204329)"
       x1="177.47392"
       y1="85.937981"
       x2="1418.8431"
       y2="85.937981" />
    <linearGradient
       inkscape:collect="always"
       xlink:href="#linearGradient5186"
       id="linearGradient5035"
       gradientUnits="userSpaceOnUse"
       gradientTransform="translate(44.204329)"
       x1="177.47392"
       y1="85.937981"
       x2="1418.8431"
       y2="85.937981" />
    <linearGradient
       inkscape:collect="always"
       xlink:href="#linearGradient5186"
       id="linearGradient5037"
       gradientUnits="userSpaceOnUse"
       gradientTransform="translate(44.204329)"
       x1="177.47392"
       y1="85.937981"
       x2="1418.8431"
       y2="85.937981" />
    <linearGradient
       inkscape:collect="always"
       xlink:href="#linearGradient5186"
       id="linearGradient5039"
       gradientUnits="userSpaceOnUse"
       gradientTransform="translate(44.204329)"
       x1="177.47392"
       y1="85.937981"
       x2="1418.8431"
       y2="85.937981" />
    <linearGradient
       inkscape:collect="always"
       xlink:href="#linearGradient5186"
       id="linearGradient5041"
       gradientUnits="userSpaceOnUse"
       gradientTransform="translate(44.204329)"
       x1="177.47392"
       y1="85.937981"
       x2="1418.8431"
       y2="85.937981" />
    <linearGradient
       inkscape:collect="always"
       xlink:href="#linearGradient5186"
       id="linearGradient5043"
       gradientUnits="userSpaceOnUse"
       gradientTransform="translate(44.204329)"
       x1="177.47392"
       y1="85.937981"
       x2="1418.8431"
       y2="85.937981" />
    <linearGradient
       inkscape:collect="always"
       xlink:href="#linearGradient5186"
       id="linearGradient5045"
       gradientUnits="userSpaceOnUse"
       gradientTransform="translate(44.204329)"
       x1="177.47392"
       y1="85.937981"
       x2="1418.8431"
       y2="85.937981" />
    <linearGradient
       inkscape:collect="always"
       xlink:href="#linearGradient5186"
       id="linearGradient5047"
       gradientUnits="userSpaceOnUse"
       gradientTransform="translate(44.204329)"
       x1="177.47392"
       y1="85.937981"
       x2="1418.8431"
       y2="85.937981" />
    <linearGradient
       inkscape:collect="always"
       xlink:href="#linearGradient5186"
       id="linearGradient5049"
       gradientUnits="userSpaceOnUse"
       gradientTransform="translate(44.204329)"
       x1="177.47392"
       y1="85.937981"
       x2="1418.8431"
       y2="85.937981" />
    <linearGradient
       inkscape:collect="always"
       xlink:href="#linearGradient5186"
       id="linearGradient5051"
       gradientUnits="userSpaceOnUse"
       gradientTransform="translate(44.204329)"
       x1="177.47392"
       y1="85.937981"
       x2="1418.8431"
       y2="85.937981" />
    <linearGradient
       inkscape:collect="always"
       xlink:href="#linearGradient5186"
       id="linearGradient17043"
       gradientUnits="userSpaceOnUse"
       gradientTransform="matrix(0.47132896,0,0,0.47132896,241.85429,160.52067)"
       x1="225.77231"
       y1="173.93456"
       x2="1111.1683"
       y2="173.93456" />
    <linearGradient
       inkscape:collect="always"
       xlink:href="#linearGradient5186"
       id="linearGradient5363"
       gradientUnits="userSpaceOnUse"
       gradientTransform="matrix(0.47132896,0,0,0.47132896,242.21065,159.16355)"
       x1="225.77231"
       y1="173.93456"
       x2="1111.1683"
       y2="173.93456" />
    <linearGradient
       xlink:href="#linearGradient5186"
       id="linearGradient861-6-6-2"
       x1="177.47392"
       y1="85.937981"
       x2="1418.8431"
       y2="85.937981"
       gradientUnits="userSpaceOnUse"
       gradientTransform="translate(44.204329)" />
    <linearGradient
       inkscape:collect="always"
       xlink:href="#linearGradient1884"
       id="linearGradient30106"
       x1="90.813553"
       y1="313.46371"
       x2="267.71695"
       y2="313.46371"
       gradientUnits="userSpaceOnUse"
       gradientTransform="translate(4.0030416)" />
  </defs>
  <sodipodi:namedview
     id="namedview14"
     pagecolor="#ffffff"
     bordercolor="#666666"
     borderopacity="1.0"
     inkscape:pageshadow="2"
     inkscape:pageopacity="0.0"
     inkscape:pagecheckerboard="0"
     showgrid="false"
     inkscape:zoom="1.2711016"
     inkscape:cx="37.76252"
     inkscape:cy="261.58413"
     inkscape:window-width="1920"
     inkscape:window-height="990"
     inkscape:window-x="0"
     inkscape:window-y="28"
     inkscape:window-maximized="1"
     inkscape:current-layer="svg12"
     fit-margin-top="10"
     fit-margin-left="25"
     fit-margin-right="10"
     fit-margin-bottom="25"
     lock-margins="true"
     inkscape:snap-grids="false" />
  <path
     style="color:#000000;fill:url(#linearGradient2995-8);stroke-width:0.999999;stroke-linecap:round;-inkscape-stroke:none"
     d="m 268.96781,180.69831 5.16231,-8.95383 -28.23242,-16.3029 -1.51488,2.66896 c -0.67322,1.18596 -1.37768,2.35403 -2.11494,3.50126 l -1.729,2.687 z m 16.80059,-52.37762 6.8e-4,-10.34699 -32.82814,-9e-4 0.16654,3.20035 c 0.0359,0.69883 0.0594,1.39896 0.0752,2.09853 -0.0232,0.60423 -0.0518,1.20755 -0.09,1.81101 l -0.20555,3.23765 z m -48.59293,84.16543 -16.36378,-28.36856 -2.66639,1.63678 c -1.16859,0.71739 -2.3571,1.40171 -3.5643,2.05209 l -2.75806,1.48782 16.38845,28.37565 z m -52.39191,16.81913 -0.002,-32.89725 -3.18742,0.15237 c -0.5698,0.0272 -1.14075,0.0474 -1.7111,0.0613 -0.73073,-0.0254 -1.46213,-0.061 -2.19181,-0.10827 l -3.22448,-0.20753 -0.0135,3.23798 -9e-4,0.006 5.5e-4,29.75619 z m 87.18958,-153.511737 -5.16181,-8.952946 -2.6378,1.521485 -23.67618,13.668032 1.63779,2.664629 c 0.71145,1.158311 1.39054,2.33724 2.03695,3.533091 l 1.48816,2.753419 z m -51.32849,-13.341004 16.53026,-28.643678 -8.96553,-5.187772 -1.52187,2.640914 -14.96478,25.924753 2.71388,1.49941 c 1.19691,0.661261 2.37564,1.356633 3.53288,2.085158 z m -73.19321,126.766901 -2.64154,-1.52078 c -1.18707,-0.68246 -2.35272,-1.39905 -3.49918,-2.14767 l -2.4839,-1.92864 -2.43359,4.02557 -14.33476,24.836 8.96554,5.18776 z m 37.33084,-138.930031 7.8e-4,-33.30136 -10.33025,-5.78e-4 -1.2e-4,3.044114 -6.1e-4,30.194804 3.19826,-0.16291 c 0.73096,-0.03686 1.46279,-0.06009 2.19444,-0.07505 0.56566,0.02374 1.13058,0.05368 1.6955,0.09055 z m -65.8213,113.830971 -1.62314,-2.66091 c -0.70621,-1.15844 -1.37909,-2.33736 -2.01979,-3.53327 l -1.48455,-2.76804 -2.72084,1.56944 -26.007755,15.01847 5.161806,8.95292 z m -12.20277,-35.79944 -0.14774,-3.18716 c -0.0281,-0.60065 -0.0484,-1.20118 -0.0613,-1.80241 0.0261,-0.70521 0.0612,-1.41135 0.1074,-2.11548 l 0.21326,-3.24278 -33.402972,5.8e-4 -1.24e-4,3.04416 -5.68e-4,7.30284 z m 40.89975,-70.879119 -16.63259,-28.81842 -2.63726,1.523943 -6.32758,3.661992 16.6326,28.81845 2.66768,-1.64321 c 1.1634,-0.717178 2.34573,-1.401535 3.54737,-2.052513 z m -28.47398,24.8469 -28.914286,-16.693687 -1.523001,2.63791 -3.641922,6.314479 28.755769,16.606475 1.51084,-2.683305 c 0.66651,-1.186683 1.36647,-2.353822 2.10021,-3.500208 z"
     id="rect918-2"
     sodipodi:nodetypes="cccccccccccccccccsccccccccccccccccccccccccccccccccccccccccccccccccccccccccccsccccccccccccccccccccc" />
  <path
     id="circle79-1"
     style="fill:url(#linearGradient2720-0);fill-opacity:1;stroke-width:3.99999"
     d="M 232.06797,92.468079 A 60.908341,60.908199 60 0 0 155.39475,67.001547 l 10.22695,17.713598 a 40.605558,40.605464 60 0 1 48.86307,17.904625 40.605558,40.605464 60 0 1 -8.91877,51.28085 l 10.22002,17.7016 A 60.908341,60.908199 60 0 0 232.06797,92.468079 Z M 143.52669,73.787286 a 60.908341,60.908199 60 0 0 -16.95471,79.588904 60.908341,60.908199 60 0 0 77.40339,25.11123 L 193.78902,160.84416 A 40.605558,40.605464 60 0 1 144.15519,143.22451 40.605558,40.605464 60 0 1 153.7299,91.4597 Z"
     inkscape:export-filename="/home/professor/Desktop/rect918.png"
     inkscape:export-xdpi="96"
     inkscape:export-ydpi="96" />
  <g
     aria-label="PRIVACYSAFE"
     transform="matrix(0.23377374,0,0,0.23412939,-29.642193,243.05992)"
     id="text9133-2"
     style="font-size:218.667px;line-height:1.25;font-family:Ubuntu;-inkscape-font-specification:'Ubuntu, Normal';fill:url(#linearGradient861-6-6);stroke-width:4.27439">
    <path
       d="m 221.67828,9.4045303 h 29.73871 V 162.47144 h -29.73871 z m 12.02669,76.0961187 h 40.23472 v 25.802711 h -40.23472 z m 40.23472,0 q 11.15202,0 19.02403,-1.968003 8.09068,-2.18667 12.24536,-7.434678 4.37334,-5.466676 4.37334,-15.744025 0,-10.277349 -4.37334,-15.525357 -4.15468,-5.466676 -12.24536,-7.434679 -7.87201,-2.18667 -19.02403,-2.18667 V 9.4045303 q 20.11737,0 34.98673,5.0293417 15.08802,4.810674 23.39737,15.962691 8.30934,11.152017 8.30934,29.95738 0,18.368029 -8.30934,29.738713 -8.30935,11.370684 -23.39737,16.400024 -14.86936,4.81068 -34.98673,4.81068 z M 233.70497,9.4045303 h 40.23472 V 35.207237 h -40.23472 z"
       style="font-weight:600;font-family:'Stack Sans Headline';-inkscape-font-specification:'Stack Sans Headline Semi-Bold';fill:url(#linearGradient5031);stroke-width:4.27439"
       id="path11505" />
    <path
       d="m 357.2516,9.4045303 h 29.73871 V 162.47144 H 357.2516 Z m 12.02668,73.9094487 h 40.89073 v 25.802711 h -40.89073 z m 40.89073,0 q 11.15202,0 19.02403,-2.18667 8.09068,-2.18667 12.24536,-7.434678 4.37334,-5.248009 4.37334,-14.432023 0,-9.402681 -4.37334,-14.432022 -4.15468,-5.248009 -12.24536,-7.434679 -7.87201,-2.18667 -19.02403,-2.18667 V 9.4045303 q 19.8987,0 34.76806,4.8106737 15.08802,4.592008 23.39737,15.525358 8.52801,10.93335 8.52801,29.520046 0,18.368029 -8.52801,29.520046 -8.30935,10.93335 -23.39737,15.744026 -14.86936,4.59201 -34.76806,4.59201 z M 369.27828,9.4045303 h 40.89073 V 35.207237 h -40.89073 z m 43.95207,82.4374617 h 29.73872 l 34.33072,70.629448 H 443.4064 Z"
       style="font-weight:600;font-family:'Stack Sans Headline';-inkscape-font-specification:'Stack Sans Headline Semi-Bold';fill:url(#linearGradient5033);stroke-width:4.27439"
       id="path11502" />
    <path
       d="m 497.85443,9.4045303 h 29.73871 V 162.47144 h -29.73871 z"
       style="font-weight:600;font-family:'Stack Sans Headline';-inkscape-font-specification:'Stack Sans Headline Semi-Bold';fill:url(#linearGradient5035);stroke-width:4.27439"
       id="path11499" />
    <path
       d="M 590.56894,162.47144 543.7742,9.4045303 h 30.39471 L 618.99565,162.47144 Z m 41.98406,0 H 604.12629 L 649.17169,9.4045303 h 30.61339 z"
       style="font-weight:600;font-family:'Stack Sans Headline';-inkscape-font-specification:'Stack Sans Headline Semi-Bold';fill:url(#linearGradient5037);stroke-width:4.27439"
       id="path11496" />
    <path
       d="m 717.39535,9.4045303 h 28.42671 L 700.99533,162.47144 h -30.39472 z m 41.98407,0 47.23207,153.0669097 H 775.99811 L 730.95271,9.4045303 Z m -62.3201,94.2454797 h 82.43746 v 25.80271 h -82.43746 z"
       style="font-weight:600;font-family:'Stack Sans Headline';-inkscape-font-specification:'Stack Sans Headline Semi-Bold';fill:url(#linearGradient5039);stroke-width:4.27439"
       id="path11493" />
    <path
       d="m 955.52325,100.15134 q -1.53067,19.68003 -10.05868,34.54939 -8.30935,14.86935 -23.39737,23.1787 -14.86936,8.09068 -36.51739,8.09068 -24.27204,0 -41.32806,-10.71469 -16.83736,-10.93335 -25.58404,-29.08271 -8.74668,-18.14936 -8.74668,-40.453394 0,-16.400026 4.81067,-30.832048 5.02934,-14.65069 14.65069,-25.58404 9.62135,-10.93335 23.61604,-17.056027 14.21335,-6.3413428 32.58138,-6.3413428 30.83205,0 48.10674,16.4000258 17.49336,16.181358 20.99203,43.733401 h -31.70671 q -1.09334,-7.434678 -3.71734,-13.338687 -2.624,-6.122676 -7.21601,-10.496017 -4.37334,-4.37334 -10.93335,-6.778677 -6.56001,-2.405337 -15.52536,-2.405337 -15.52536,0 -25.58404,7.653345 -9.84001,7.434679 -14.43202,19.461364 -4.59201,12.026685 -4.59201,25.58404 0,13.557354 4.59201,25.802704 4.59201,12.02669 14.43202,19.68003 10.05868,7.43468 25.58404,7.43468 9.84002,0 16.83736,-2.84267 6.99734,-2.84267 11.58935,-7.87201 4.81068,-5.24801 7.21601,-12.24535 2.40534,-6.99735 3.06134,-15.52536 z"
       style="font-weight:600;font-family:'Stack Sans Headline';-inkscape-font-specification:'Stack Sans Headline Semi-Bold';fill:url(#linearGradient5041);stroke-width:4.27439"
       id="path11490" />
    <path
       d="M 1008.2218,119.6127 955.74173,9.4045303 h 30.61338 l 36.73609,80.0321247 h -7.872 l 36.5173,-80.0321247 h 30.6134 L 1029.8698,119.6127 Z m -4.1547,-32.362715 h 29.9574 v 75.221455 h -29.9574 z"
       style="font-weight:600;font-family:'Stack Sans Headline';-inkscape-font-specification:'Stack Sans Headline Semi-Bold';fill:url(#linearGradient5043);stroke-width:4.27439"
       id="path11487" />
    <path
       d="m 1117.5548,113.70869 q 0.8746,7.65335 5.248,13.33869 4.3733,5.68534 11.3707,8.74668 7.216,2.84267 16.1813,2.84267 12.0267,0 20.1174,-4.15467 8.3093,-4.37334 8.3093,-13.33869 0,-6.34134 -5.0293,-9.84001 -4.8107,-3.71734 -13.12,-5.90401 -8.0907,-2.40534 -17.7121,-4.37334 -9.6213,-2.186674 -19.4613,-5.248012 -9.6214,-3.280005 -17.7121,-8.528013 -8.0906,-5.248008 -13.12,-13.994688 -4.8106,-8.746681 -4.8106,-22.304035 0,-13.120021 7.6533,-23.178703 7.6533,-10.277349 21.2107,-15.962692 13.776,-5.9040088 31.488,-5.9040088 16.8374,0 30.1761,6.7786768 13.3387,6.778678 21.2107,18.586696 7.872,11.808018 7.872,26.677375 h -31.488 q -0.8747,-11.808018 -8.0907,-18.368029 -6.9974,-6.56001 -20.7734,-6.56001 -13.776,0 -20.992,5.029341 -7.216,5.029341 -7.216,12.901354 0,6.997344 4.8106,10.93335 5.0294,3.717339 13.1201,6.341343 8.0906,2.405337 17.712,4.37334 9.84,1.968004 19.4614,5.029342 9.6213,2.842671 17.712,8.090679 8.3093,5.029341 13.12,13.557354 5.0293,8.52801 5.0293,21.8667 0,21.2107 -15.9627,33.01872 -15.9626,11.80802 -44.8267,11.80802 -17.712,0 -31.7067,-6.77868 -13.9947,-6.77868 -22.304,-18.5867 -8.3094,-11.80801 -8.9654,-26.89604 z"
       style="font-weight:600;font-family:'Stack Sans Headline';-inkscape-font-specification:'Stack Sans Headline Semi-Bold';fill:url(#linearGradient5045);stroke-width:4.27439"
       id="path11484" />
    <path
       d="m 1264.7173,9.4045303 h 28.4267 L 1248.3172,162.47144 h -30.3947 z m 41.984,0 47.2321,153.0669097 H 1323.32 L 1278.2746,9.4045303 Z m -62.3201,94.2454797 h 82.4375 v 25.80271 h -82.4375 z"
       style="font-weight:600;font-family:'Stack Sans Headline';-inkscape-font-specification:'Stack Sans Headline Semi-Bold';fill:url(#linearGradient5047);stroke-width:4.27439"
       id="path11481" />
    <path
       d="m 1369.8957,9.4045303 h 29.7387 V 162.47144 h -29.7387 z m 28.4267,67.5681057 h 67.1308 v 25.802704 h -67.1308 z m -16.4,-67.5681057 h 92.2774 V 35.425904 h -92.2774 z"
       style="font-weight:600;font-family:'Stack Sans Headline';-inkscape-font-specification:'Stack Sans Headline Semi-Bold';fill:url(#linearGradient5049);stroke-width:4.27439"
       id="path11478" />
    <path
       d="M 1491.6927,162.47144 V 9.4045303 h 106.0535 V 35.425904 h -76.3148 v 37.173391 h 67.5681 v 25.802707 h -67.5681 v 38.048058 h 77.1895 v 26.02138 z"
       style="font-weight:600;font-family:'Stack Sans Headline';-inkscape-font-specification:'Stack Sans Headline Semi-Bold';fill:url(#linearGradient5051);stroke-width:4.27439"
       id="path11475" />
  </g>
  <text
     xml:space="preserve"
     style="font-style:normal;font-weight:normal;font-size:24.9725px;line-height:1.25;font-family:sans-serif;fill:url(#linearGradient5363);fill-opacity:1;stroke:none;stroke-width:1.25758"
     x="348.21619"
     y="260.13474"
     id="text28081-6"
     inkscape:export-filename="/home/professor/Desktop/view_logo.png"
     inkscape:export-xdpi="96"
     inkscape:export-ydpi="96"><tspan
       sodipodi:role="line"
       id="tspan28079-8"
       x="348.21619"
       y="260.13474"
       style="font-style:normal;font-variant:normal;font-weight:normal;font-stretch:normal;font-size:24.9725px;font-family:Ubuntu;-inkscape-font-specification:Ubuntu;fill:url(#linearGradient5363);fill-opacity:1;stroke-width:1.25758">™</tspan></text>
  <text
     xml:space="preserve"
     style="font-size:51.1578px;line-height:1.25;font-family:Ubuntu;-inkscape-font-specification:'Ubuntu, Normal';mix-blend-mode:normal;fill:url(#linearGradient30106);fill-opacity:1;stroke-width:1"
     x="181.42662"
     y="331.36893"
     id="text9133"
     transform="scale(0.99924017,1.0007604)"><tspan
       sodipodi:role="line"
       id="tspan9131"
       x="181.42662"
       y="331.36893"
       style="font-style:normal;font-variant:normal;font-weight:600;font-stretch:normal;font-size:51.1578px;font-family:'Stack Sans Headline';-inkscape-font-specification:'Stack Sans Headline Semi-Bold';text-align:center;text-anchor:middle;fill:url(#linearGradient30106);fill-opacity:1;stroke-width:1">SOCIAL</tspan></text>
</svg>
