<?xml version="1.0" encoding="UTF-8" standalone="no"?>
<svg
   version="1.1"
   viewBox="0 0 366.26229 356.8415"
   id="svg12"
   sodipodi:docname="privacysafe_social_large_logo.svg"
   inkscape:export-filename="/home/professor/Desktop/privacysafe-social/privacysafe_social_large_logo.png"
   inkscape:export-xdpi="96"
   inkscape:export-ydpi="96"
   inkscape:version="1.1.2 (0a00cf5339, 2022-02-04)"
   width="366.2623"
   height="356.84149"
   xmlns:inkscape="http://www.inkscape.org/namespaces/inkscape"
   xmlns:sodipodi="http://sodipodi.sourceforge.net/DTD/sodipodi-0.dtd"
   xmlns:xlink="http://www.w3.org/1999/xlink"
   xmlns="http://www.w3.org/2000/svg"
   xmlns:svg="http://www.w3.org/2000/svg">
  <defs
     id="defs16">
    <linearGradient
       inkscape:collect="always"
       id="linearGradient886">
      <stop
         style="stop-color:#3771c8;stop-opacity:1"
         offset="0"
         id="stop882" />
      <stop
         style="stop-color:#2ca089;stop-opacity:1"
         offset="1"
         id="stop884" />
    </linearGradient>
    <linearGradient
       inkscape:collect="always"
       id="linearGradient5186">
      <stop
         style="stop-color:#ef2008;stop-opacity:1"
         offset="0"
         id="stop5182" />
      <stop
         style="stop-color:#ff6428;stop-opacity:1"
         offset="1"
         id="stop5184" />
    </linearGradient>
    <linearGradient
       inkscape:collect="always"
       xlink:href="#linearGradient886"
       id="linearGradient11474"
       gradientUnits="userSpaceOnUse"
       gradientTransform="matrix(0.46303176,0,0,0.46303176,-56.588306,251.53577)"
       x1="225.77231"
       y1="173.93456"
       x2="1111.1683"
       y2="173.93456" />
    <linearGradient
       inkscape:collect="always"
       xlink:href="#linearGradient1160"
       id="linearGradient1094-2"
       gradientUnits="userSpaceOnUse"
       gradientTransform="matrix(0.4787416,0,0,0.4787416,-61.976132,260.06994)"
       x1="239.09921"
       y1="174.31239"
       x2="855.43896"
       y2="174.31239" />
    <linearGradient
       inkscape:collect="always"
       id="linearGradient1160">
      <stop
         style="stop-color:#0d6eff;stop-opacity:1"
         offset="0"
         id="stop1156" />
      <stop
         style="stop-color:#45da64;stop-opacity:1"
         offset="1"
         id="stop1158" />
    </linearGradient>
    <linearGradient
       inkscape:collect="always"
       xlink:href="#linearGradient1160"
       id="linearGradient1207"
       gradientUnits="userSpaceOnUse"
       gradientTransform="matrix(0.4787416,0,0,0.4787416,-61.976131,260.06994)"
       x1="239.09921"
       y1="174.31239"
       x2="855.43896"
       y2="174.31239" />
    <linearGradient
       inkscape:collect="always"
       xlink:href="#linearGradient1160"
       id="linearGradient1422"
       gradientUnits="userSpaceOnUse"
       gradientTransform="matrix(0.4787416,0,0,0.4787416,-61.976131,260.06994)"
       x1="239.09921"
       y1="174.31239"
       x2="855.43896"
       y2="174.31239" />
    <linearGradient
       xlink:href="#linearGradient5186"
       id="linearGradient861-6"
       x1="177.47392"
       y1="85.937981"
       x2="1418.8431"
       y2="85.937981"
       gradientUnits="userSpaceOnUse"
       gradientTransform="translate(44.204329)" />
    <linearGradient
       id="linearGradient1884">
      <stop
         style="stop-color:#157ee9;stop-opacity:1"
         offset="0"
         id="stop1880" />
      <stop
         style="stop-color:#3ecc78;stop-opacity:1"
         offset="1"
         id="stop1882" />
    </linearGradient>
    <linearGradient
       inkscape:collect="always"
       xlink:href="#linearGradient1884"
       id="linearGradient2995-8"
       x1="122.06052"
       y1="131.13593"
       x2="344.73987"
       y2="130.72453"
       gradientUnits="userSpaceOnUse"
       gradientTransform="matrix(1.3240204,1.5813012e-8,0,1.3240194,-98.849286,-50.480148)" />
    <linearGradient
       inkscape:collect="always"
       xlink:href="#linearGradient5186"
       id="linearGradient2720-0"
       x1="162.25932"
       y1="131.28523"
       x2="258.85034"
       y2="131.28523"
       gradientUnits="userSpaceOnUse"
       gradientTransform="matrix(0.63057971,1.0921961,-1.0921956,0.63057941,189.93719,-189.83101)" />
    <linearGradient
       xlink:href="#linearGradient5186"
       id="linearGradient861-6-6"
       x1="177.47392"
       y1="85.937981"
       x2="1418.8431"
       y2="85.937981"
       gradientUnits="userSpaceOnUse"
       gradientTransform="translate(44.204329)" />
    <linearGradient
       inkscape:collect="always"
       xlink:href="#linearGradient5186"
       id="linearGradient5031"
       gradientUnits="userSpaceOnUse"
       gradientTransform="matrix(0.23377374,0,0,0.23412939,-19.308382,243.05992)"
       x1="177.47392"
       y1="85.937981"
       x2="1418.8431"
       y2="85.937981" />
    <linearGradient
       inkscape:collect="always"
       xlink:href="#linearGradient5186"
       id="linearGradient5033"
       gradientUnits="userSpaceOnUse"
       gradientTransform="matrix(0.23377374,0,0,0.23412939,-19.308382,243.05992)"
       x1="177.47392"
       y1="85.937981"
       x2="1418.8431"
       y2="85.937981" />
    <linearGradient
       inkscape:collect="always"
       xlink:href="#linearGradient5186"
       id="linearGradient5035"
       gradientUnits="userSpaceOnUse"
       gradientTransform="matrix(0.23377374,0,0,0.23412939,-19.308382,243.05992)"
       x1="177.47392"
       y1="85.937981"
       x2="1418.8431"
       y2="85.937981" />
    <linearGradient
       inkscape:collect="always"
       xlink:href="#linearGradient5186"
       id="linearGradient5037"
       gradientUnits="userSpaceOnUse"
       gradientTransform="matrix(0.23377374,0,0,0.23412939,-19.308382,243.05992)"
       x1="177.47392"
       y1="85.937981"
       x2="1418.8431"
       y2="85.937981" />
    <linearGradient
       inkscape:collect="always"
       xlink:href="#linearGradient5186"
       id="linearGradient5039"
       gradientUnits="userSpaceOnUse"
       gradientTransform="matrix(0.23377374,0,0,0.23412939,-19.308382,243.05992)"
       x1="177.47392"
       y1="85.937981"
       x2="1418.8431"
       y2="85.937981" />
    <linearGradient
       inkscape:collect="always"
       xlink:href="#linearGradient5186"
       id="linearGradient5041"
       gradientUnits="userSpaceOnUse"
       gradientTransform="matrix(0.23377374,0,0,0.23412939,-19.308382,243.05992)"
       x1="177.47392"
       y1="85.937981"
       x2="1418.8431"
       y2="85.937981" />
    <linearGradient
       inkscape:collect="always"
       xlink:href="#linearGradient5186"
       id="linearGradient5043"
       gradientUnits="userSpaceOnUse"
       gradientTransform="matrix(0.23377374,0,0,0.23412939,-19.308382,243.05992)"
       x1="177.47392"
       y1="85.937981"
       x2="1418.8431"
       y2="85.937981" />
    <linearGradient
       inkscape:collect="always"
       xlink:href="#linearGradient5186"
       id="linearGradient5045"
       gradientUnits="userSpaceOnUse"
       gradientTransform="matrix(0.23377374,0,0,0.23412939,-19.308382,243.05992)"
       x1="177.47392"
       y1="85.937981"
       x2="1418.8431"
       y2="85.937981" />
    <linearGradient
       inkscape:collect="always"
       xlink:href="#linearGradient5186"
       id="linearGradient5047"
       gradientUnits="userSpaceOnUse"
       gradientTransform="matrix(0.23377374,0,0,0.23412939,-19.308382,243.05992)"
       x1="177.47392"
       y1="85.937981"
       x2="1418.8431"
       y2="85.937981" />
    <linearGradient
       inkscape:collect="always"
       xlink:href="#linearGradient5186"
       id="linearGradient5049"
       gradientUnits="userSpaceOnUse"
       gradientTransform="matrix(0.23377374,0,0,0.23412939,-19.308382,243.05992)"
       x1="177.47392"
       y1="85.937981"
       x2="1418.8431"
       y2="85.937981" />
    <linearGradient
       inkscape:collect="always"
       xlink:href="#linearGradient5186"
       id="linearGradient5051"
       gradientUnits="userSpaceOnUse"
       gradientTransform="matrix(0.23377374,0,0,0.23412939,-19.308382,243.05992)"
       x1="177.47392"
       y1="85.937981"
       x2="1418.8431"
       y2="85.937981" />
    <linearGradient
       inkscape:collect="always"
       xlink:href="#linearGradient5186"
       id="linearGradient17043"
       gradientUnits="userSpaceOnUse"
       gradientTransform="matrix(0.47132896,0,0,0.47132896,241.85429,160.52067)"
       x1="225.77231"
       y1="173.93456"
       x2="1111.1683"
       y2="173.93456" />
    <linearGradient
       inkscape:collect="always"
       xlink:href="#linearGradient5186"
       id="linearGradient5363"
       gradientUnits="userSpaceOnUse"
       gradientTransform="matrix(0.47132896,0,0,0.47132896,242.21065,159.16355)"
       x1="225.77231"
       y1="173.93456"
       x2="1111.1683"
       y2="173.93456" />
    <linearGradient
       xlink:href="#linearGradient5186"
       id="linearGradient861-6-6-2"
       x1="177.47392"
       y1="85.937981"
       x2="1418.8431"
       y2="85.937981"
       gradientUnits="userSpaceOnUse"
       gradientTransform="translate(44.204329)" />
    <linearGradient
       inkscape:collect="always"
       xlink:href="#linearGradient1884"
       id="linearGradient30106"
       x1="90.813553"
       y1="313.46371"
       x2="267.71695"
       y2="313.46371"
       gradientUnits="userSpaceOnUse"
       gradientTransform="translate(4.0030416)" />
  </defs>
  <sodipodi:namedview
     id="namedview14"
     pagecolor="#ffffff"
     bordercolor="#666666"
     borderopacity="1.0"
     inkscape:pageshadow="2"
     inkscape:pageopacity="0.0"
     inkscape:pagecheckerboard="0"
     showgrid="false"
     inkscape:zoom="0.44940228"
     inkscape:cx="33.377668"
     inkscape:cy="261.4584"
     inkscape:window-width="1920"
     inkscape:window-height="990"
     inkscape:window-x="0"
     inkscape:window-y="28"
     inkscape:window-maximized="1"
     inkscape:current-layer="svg12"
     fit-margin-top="10"
     fit-margin-left="25"
     fit-margin-right="10"
     fit-margin-bottom="25"
     lock-margins="true"
     inkscape:snap-grids="false" />
  <path
     style="color:#000000;fill:url(#linearGradient2995-8);stroke-width:0.999999;stroke-linecap:round;-inkscape-stroke:none"
     d="m 268.96781,180.69831 5.16231,-8.95383 -28.23242,-16.3029 -1.51488,2.66896 c -0.67322,1.18596 -1.37768,2.35403 -2.11494,3.50126 l -1.729,2.687 z m 16.80059,-52.37762 6.8e-4,-10.34699 -32.82814,-9e-4 0.16654,3.20035 c 0.0359,0.69883 0.0594,1.39896 0.0752,2.09853 -0.0232,0.60423 -0.0518,1.20755 -0.09,1.81101 l -0.20555,3.23765 z m -48.59293,84.16543 -16.36378,-28.36856 -2.66639,1.63678 c -1.16859,0.71739 -2.3571,1.40171 -3.5643,2.05209 l -2.75806,1.48782 16.38845,28.37565 z m -52.39191,16.81913 -0.002,-32.89725 -3.18742,0.15237 c -0.5698,0.0272 -1.14075,0.0474 -1.7111,0.0613 -0.73073,-0.0254 -1.46213,-0.061 -2.19181,-0.10827 l -3.22448,-0.20753 -0.0135,3.23798 -9e-4,0.006 5.5e-4,29.75619 z m 87.18958,-153.511737 -5.16181,-8.952946 -2.6378,1.521485 -23.67618,13.668032 1.63779,2.664629 c 0.71145,1.158311 1.39054,2.33724 2.03695,3.533091 l 1.48816,2.753419 z m -51.32849,-13.341004 16.53026,-28.643678 -8.96553,-5.187772 -1.52187,2.640914 -14.96478,25.924753 2.71388,1.49941 c 1.19691,0.661261 2.37564,1.356633 3.53288,2.085158 z m -73.19321,126.766901 -2.64154,-1.52078 c -1.18707,-0.68246 -2.35272,-1.39905 -3.49918,-2.14767 l -2.4839,-1.92864 -2.43359,4.02557 -14.33476,24.836 8.96554,5.18776 z m 37.33084,-138.930031 7.8e-4,-33.30136 -10.33025,-5.78e-4 -1.2e-4,3.044114 -6.1e-4,30.194804 3.19826,-0.16291 c 0.73096,-0.03686 1.46279,-0.06009 2.19444,-0.07505 0.56566,0.02374 1.13058,0.05368 1.6955,0.09055 z m -65.8213,113.830971 -1.62314,-2.66091 c -0.70621,-1.15844 -1.37909,-2.33736 -2.01979,-3.53327 l -1.48455,-2.76804 -2.72084,1.56944 -26.007755,15.01847 5.161806,8.95292 z m -12.20277,-35.79944 -0.14774,-3.18716 c -0.0281,-0.60065 -0.0484,-1.20118 -0.0613,-1.80241 0.0261,-0.70521 0.0612,-1.41135 0.1074,-2.11548 l 0.21326,-3.24278 -33.402972,5.8e-4 -1.24e-4,3.04416 -5.68e-4,7.30284 z m 40.89975,-70.879119 -16.63259,-28.81842 -2.63726,1.523943 -6.32758,3.661992 16.6326,28.81845 2.66768,-1.64321 c 1.1634,-0.717178 2.34573,-1.401535 3.54737,-2.052513 z m -28.47398,24.8469 -28.914286,-16.693687 -1.523001,2.63791 -3.641922,6.314479 28.755769,16.606475 1.51084,-2.683305 c 0.66651,-1.186683 1.36647,-2.353822 2.10021,-3.500208 z"
     id="path1109"
     sodipodi:nodetypes="cccccccccccccccccsccccccccccccccccccccccccccccccccccccccccccccccccccccccccccsccccccccccccccccccccc"
     inkscape:export-filename="/home/professor/Desktop/identity_2026/privacysafe-social/privacysafe_social_large_logo.png"
     inkscape:export-xdpi="199.39128"
     inkscape:export-ydpi="199.39128" />
  <path
     id="path1106"
     style="fill:url(#linearGradient2720-0);fill-opacity:1;stroke-width:3.99999"
     d="M 232.06797,92.468079 A 60.908341,60.908199 60 0 0 155.39475,67.001547 l 10.22695,17.713598 a 40.605558,40.605464 60 0 1 48.86307,17.904625 40.605558,40.605464 60 0 1 -8.91877,51.28085 l 10.22002,17.7016 A 60.908341,60.908199 60 0 0 232.06797,92.468079 Z M 143.52669,73.787286 a 60.908341,60.908199 60 0 0 -16.95471,79.588904 60.908341,60.908199 60 0 0 77.40339,25.11123 L 193.78902,160.84416 A 40.605558,40.605464 60 0 1 144.15519,143.22451 40.605558,40.605464 60 0 1 153.7299,91.4597 Z"
     inkscape:export-filename="/home/professor/Desktop/identity_2026/privacysafe-social/privacysafe_social_large_logo.png"
     inkscape:export-xdpi="199.39128"
     inkscape:export-ydpi="199.39128" />
  <path
     d="m 22.180368,245.2618 h 6.952129 v 35.83746 h -6.952129 z m 2.811524,17.81633 h 9.405821 v 6.04118 h -9.405821 z m 9.405821,0 q 2.607049,0 4.447319,-0.46076 1.891388,-0.51197 2.862643,-1.74068 1.022372,-1.27991 1.022372,-3.68614 0,-2.40623 -1.022372,-3.63494 -0.971255,-1.27991 -2.862643,-1.74068 -1.84027,-0.51196 -4.447319,-0.51196 v -6.04117 q 4.702913,0 8.178979,1.17751 3.527182,1.12632 5.46969,3.73734 1.942506,2.61101 1.942506,7.0139 0,4.3005 -1.942506,6.96271 -1.942508,2.66221 -5.46969,3.83973 -3.476066,1.12632 -8.178979,1.12632 z M 24.991892,245.2618 h 9.405821 v 6.04117 h -9.405821 z"
     style="font-weight:600;font-size:218.667px;line-height:1.25;font-family:'Stack Sans Headline';-inkscape-font-specification:'Stack Sans Headline Semi-Bold';fill:url(#linearGradient5031);stroke-width:1"
     id="path1073"
     inkscape:export-filename="/home/professor/Desktop/identity_2026/privacysafe-social/privacysafe_social_large_logo.png"
     inkscape:export-xdpi="199.39128"
     inkscape:export-ydpi="199.39128" />
  <path
     d="m 53.87385,245.2618 h 6.952129 v 35.83746 H 53.87385 Z m 2.811522,17.30437 h 9.559178 v 6.04117 h -9.559178 z m 9.559178,0 q 2.60705,0 4.447319,-0.51196 1.891389,-0.51197 2.862644,-1.74068 1.022372,-1.22871 1.022372,-3.37896 0,-2.20144 -1.022372,-3.37896 -0.971255,-1.22871 -2.862644,-1.74068 -1.840269,-0.51196 -4.447319,-0.51196 v -6.04117 q 4.651794,0 8.12786,1.12632 3.527183,1.07512 5.469691,3.63494 1.993624,2.55982 1.993624,6.91151 0,4.3005 -1.993624,6.91151 -1.942508,2.55982 -5.469691,3.68614 -3.476066,1.07512 -8.12786,1.07512 z M 56.685372,245.2618 h 9.559178 v 6.04117 h -9.559178 z m 10.274839,19.30103 h 6.952132 l 8.025621,16.53643 h -7.923385 z"
     style="font-weight:600;font-size:218.667px;line-height:1.25;font-family:'Stack Sans Headline';-inkscape-font-specification:'Stack Sans Headline Semi-Bold';fill:url(#linearGradient5033);stroke-width:1"
     id="path1076"
     inkscape:export-filename="/home/professor/Desktop/identity_2026/privacysafe-social/privacysafe_social_large_logo.png"
     inkscape:export-xdpi="199.39128"
     inkscape:export-ydpi="199.39128" />
  <path
     d="m 86.743099,245.2618 h 6.95213 v 35.83746 h -6.95213 z"
     style="font-weight:600;font-size:218.667px;line-height:1.25;font-family:'Stack Sans Headline';-inkscape-font-specification:'Stack Sans Headline Semi-Bold';fill:url(#linearGradient5035);stroke-width:1"
     id="path1079"
     inkscape:export-filename="/home/professor/Desktop/identity_2026/privacysafe-social/privacysafe_social_large_logo.png"
     inkscape:export-xdpi="199.39128"
     inkscape:export-ydpi="199.39128" />
  <path
     d="M 108.41732,281.09926 97.477935,245.2618 h 7.105485 l 10.47932,35.83746 z m 9.81477,0 h -6.64542 L 122.1171,245.2618 h 7.15661 z"
     style="font-weight:600;font-size:218.667px;line-height:1.25;font-family:'Stack Sans Headline';-inkscape-font-specification:'Stack Sans Headline Semi-Bold';fill:url(#linearGradient5037);stroke-width:1"
     id="path1082"
     inkscape:export-filename="/home/professor/Desktop/identity_2026/privacysafe-social/privacysafe_social_large_logo.png"
     inkscape:export-xdpi="199.39128"
     inkscape:export-ydpi="199.39128" />
  <path
     d="m 138.066,245.2618 h 6.64542 l -10.47931,35.83746 h -7.10549 z m 9.81477,0 11.04162,35.83746 h -7.1566 L 141.23536,245.2618 Z m -14.5688,22.06563 h 19.27171 v 6.04118 h -19.27171 z"
     style="font-weight:600;font-size:218.667px;line-height:1.25;font-family:'Stack Sans Headline';-inkscape-font-specification:'Stack Sans Headline Semi-Bold';fill:url(#linearGradient5039);stroke-width:1"
     id="path1085"
     inkscape:export-filename="/home/professor/Desktop/identity_2026/privacysafe-social/privacysafe_social_large_logo.png"
     inkscape:export-xdpi="199.39128"
     inkscape:export-ydpi="199.39128" />
  <path
     d="m 193.73405,266.50829 q -0.35783,4.60768 -2.35145,8.08903 -1.94251,3.48135 -5.4697,5.42681 -3.47606,1.89427 -8.5368,1.89427 -5.67417,0 -9.66142,-2.50862 -3.93613,-2.55982 -5.98087,-6.80912 -2.04475,-4.2493 -2.04475,-9.47133 0,-3.83973 1.12461,-7.21869 1.17573,-3.43015 3.42495,-5.98997 2.24922,-2.55982 5.52081,-3.99332 3.3227,-1.4847 7.61667,-1.4847 7.20772,0 11.24609,3.83973 4.08949,3.78853 4.90739,10.23928 h -7.4122 q -0.25559,-1.74068 -0.86902,-3.12298 -0.61342,-1.4335 -1.68691,-2.45743 -1.02237,-1.02392 -2.55593,-1.58708 -1.53356,-0.56316 -3.62942,-0.56316 -3.62942,0 -5.98088,1.79187 -2.30033,1.74068 -3.37383,4.55648 -1.07349,2.8158 -1.07349,5.98997 0,3.17418 1.07349,6.04117 1.0735,2.8158 3.37383,4.60768 2.35146,1.74067 5.98088,1.74067 2.30034,0 3.93613,-0.66555 1.6358,-0.66555 2.70929,-1.84307 1.12461,-1.22871 1.68691,-2.86699 0.56231,-1.63829 0.71566,-3.63495 z"
     style="font-weight:600;font-size:218.667px;line-height:1.25;font-family:'Stack Sans Headline';-inkscape-font-specification:'Stack Sans Headline Semi-Bold';fill:url(#linearGradient5041);stroke-width:1"
     id="path1088"
     inkscape:export-filename="/home/professor/Desktop/identity_2026/privacysafe-social/privacysafe_social_large_logo.png"
     inkscape:export-xdpi="199.39128"
     inkscape:export-ydpi="199.39128" />
  <path
     d="M 206.05359,271.06477 193.78513,245.2618 h 7.1566 l 8.58793,18.73787 h -1.84026 l 8.53678,-18.73787 h 7.15661 l -12.26847,25.80297 z m -0.97126,-7.57706 h 7.00325 v 17.61155 h -7.00325 z"
     style="font-weight:600;font-size:218.667px;line-height:1.25;font-family:'Stack Sans Headline';-inkscape-font-specification:'Stack Sans Headline Semi-Bold';fill:url(#linearGradient5043);stroke-width:1"
     id="path1091"
     inkscape:export-filename="/home/professor/Desktop/identity_2026/privacysafe-social/privacysafe_social_large_logo.png"
     inkscape:export-xdpi="199.39128"
     inkscape:export-ydpi="199.39128" />
  <path
     d="m 231.61277,269.68247 q 0.20446,1.79187 1.22685,3.12298 1.02236,1.3311 2.65817,2.04785 1.68691,0.66555 3.78276,0.66555 2.81153,0 4.70292,-0.97273 1.9425,-1.02392 1.9425,-3.12298 0,-1.48469 -1.17572,-2.30383 -1.12462,-0.87034 -3.06711,-1.3823 -1.8914,-0.56317 -4.14063,-1.02393 -2.2492,-0.51197 -4.54954,-1.22872 -2.24923,-0.76794 -4.14062,-1.99665 -1.89137,-1.22872 -3.06711,-3.27657 -1.12459,-2.04786 -1.12459,-5.22203 0,-3.07178 1.78914,-5.42682 1.78914,-2.40623 4.9585,-3.73733 3.22047,-1.38231 7.36107,-1.38231 3.93614,0 7.05438,1.58709 3.11824,1.58709 4.9585,4.35169 1.84027,2.76461 1.84027,6.24596 h -7.36107 q -0.20448,-2.7646 -1.89139,-4.30049 -1.63581,-1.53589 -4.85628,-1.53589 -3.22046,0 -4.90738,1.17751 -1.68691,1.17752 -1.68691,3.02059 0,1.63828 1.1246,2.55982 1.17574,0.87033 3.06713,1.48469 1.89137,0.56316 4.1406,1.02393 2.30033,0.46077 4.54956,1.17752 2.24921,0.66555 4.14061,1.89426 1.94249,1.17752 3.06711,3.17418 1.17572,1.99665 1.17572,5.11963 0,4.96605 -3.73166,7.73066 -3.73164,2.7646 -10.47931,2.7646 -4.1406,0 -7.41219,-1.58709 -3.2716,-1.58709 -5.21409,-4.35169 -1.94252,-2.7646 -2.09588,-6.29715 z"
     style="font-weight:600;font-size:218.667px;line-height:1.25;font-family:'Stack Sans Headline';-inkscape-font-specification:'Stack Sans Headline Semi-Bold';fill:url(#linearGradient5045);stroke-width:1"
     id="path1094"
     inkscape:export-filename="/home/professor/Desktop/identity_2026/privacysafe-social/privacysafe_social_large_logo.png"
     inkscape:export-xdpi="199.39128"
     inkscape:export-ydpi="199.39128" />
  <path
     d="m 266.0155,245.2618 h 6.64542 l -10.47933,35.83746 h -7.10549 z m 9.81476,0 11.04162,35.83746 h -7.15661 L 269.18484,245.2618 Z m -14.56881,22.06563 h 19.27173 v 6.04118 h -19.27173 z"
     style="font-weight:600;font-size:218.667px;line-height:1.25;font-family:'Stack Sans Headline';-inkscape-font-specification:'Stack Sans Headline Semi-Bold';fill:url(#linearGradient5047);stroke-width:1"
     id="path1097"
     inkscape:export-filename="/home/professor/Desktop/identity_2026/privacysafe-social/privacysafe_social_large_logo.png"
     inkscape:export-xdpi="199.39128"
     inkscape:export-ydpi="199.39128" />
  <path
     d="m 290.60345,245.2618 h 6.95213 v 35.83746 h -6.95213 z m 6.64541,15.81968 h 15.69342 v 6.04117 h -15.69342 z m -3.83389,-15.81968 h 21.57204 v 6.09237 h -21.57204 z"
     style="font-weight:600;font-size:218.667px;line-height:1.25;font-family:'Stack Sans Headline';-inkscape-font-specification:'Stack Sans Headline Semi-Bold';fill:url(#linearGradient5049);stroke-width:1"
     id="path1100"
     inkscape:export-filename="/home/professor/Desktop/identity_2026/privacysafe-social/privacysafe_social_large_logo.png"
     inkscape:export-xdpi="199.39128"
     inkscape:export-ydpi="199.39128" />
  <path
     d="M 319.07639,281.09926 V 245.2618 h 24.79252 v 6.09237 h -17.84039 v 8.70338 h 15.79564 v 6.04117 h -15.79564 v 8.90817 h 18.04487 v 6.09237 z"
     style="font-weight:600;font-size:218.667px;line-height:1.25;font-family:'Stack Sans Headline';-inkscape-font-specification:'Stack Sans Headline Semi-Bold';fill:url(#linearGradient5051);stroke-width:1"
     id="path1103"
     inkscape:export-filename="/home/professor/Desktop/identity_2026/privacysafe-social/privacysafe_social_large_logo.png"
     inkscape:export-xdpi="199.39128"
     inkscape:export-ydpi="199.39128" />
  <g
     aria-label="™"
     id="text28081-6"
     style="font-size:24.9725px;line-height:1.25;fill:url(#linearGradient5363);stroke-width:1.25758"
     inkscape:export-filename="/home/professor/Desktop/identity_2026/privacysafe-social/privacysafe_social_large_logo.png"
     inkscape:export-xdpi="199.39128"
     inkscape:export-ydpi="199.39128">
    <path
       d="m 355.75788,242.82879 v 1.52333 h -2.62211 v 6.79252 h -1.7231 v -6.79252 h -2.62212 v -1.52333 z m 9.48955,0 q 0.19978,1.2736 0.34962,3.2714 0.14983,1.97283 0.34961,5.04445 h -1.74807 q -0.025,-0.62432 -0.05,-1.32355 -0.025,-0.7242 -0.0749,-1.42343 -0.025,-0.7242 -0.0749,-1.42343 -0.0499,-0.69923 -0.0999,-1.29857 -0.2747,0.47448 -0.59934,1.12376 -0.32465,0.62431 -0.64929,1.24863 -0.29967,0.62431 -0.59934,1.1737 -0.2747,0.5494 -0.42453,0.87404 h -1.22365 q -0.14984,-0.32464 -0.44951,-0.87404 -0.2747,-0.54939 -0.59934,-1.1737 -0.29967,-0.62432 -0.64928,-1.24863 -0.32465,-0.64928 -0.57437,-1.12376 -0.05,0.59934 -0.0999,1.29857 -0.0499,0.69923 -0.0999,1.42343 -0.025,0.69923 -0.05,1.42343 -0.025,0.69923 -0.0499,1.32355 h -1.7231 q 0.19978,-3.07162 0.34961,-5.04445 0.14984,-1.9978 0.34962,-3.2714 h 1.64818 q 0.19978,0.42454 0.49945,1.02388 0.29967,0.59934 0.64929,1.29857 0.34961,0.69923 0.69923,1.42343 0.37458,0.7242 0.7242,1.39846 0.32464,-0.67426 0.69923,-1.39846 0.37459,-0.7242 0.7242,-1.42343 0.34962,-0.69923 0.64929,-1.29857 0.29967,-0.59934 0.49945,-1.02388 z"
       style="font-family:Ubuntu;-inkscape-font-specification:Ubuntu"
       id="path1130" />
  </g>
  <g
     aria-label="SOCIAL"
     transform="scale(0.99924017,1.0007604)"
     id="text9133"
     style="font-size:51.1578px;line-height:1.25;font-family:Ubuntu;-inkscape-font-specification:'Ubuntu, Normal';fill:url(#linearGradient30106)"
     inkscape:export-filename="/home/professor/Desktop/identity_2026/privacysafe-social/privacysafe_social_large_logo.png"
     inkscape:export-xdpi="199.39128"
     inkscape:export-ydpi="199.39128">
    <path
       d="m 100.72535,319.96074 q 0.20464,1.79052 1.22779,3.12062 1.02316,1.33011 2.66021,2.04632 1.6882,0.66505 3.78567,0.66505 2.81368,0 4.70652,-0.972 1.944,-1.02316 1.944,-3.12063 0,-1.48357 -1.17663,-2.3021 -1.12547,-0.86968 -3.06947,-1.38126 -1.89284,-0.56273 -4.14378,-1.02315 -2.25094,-0.51158 -4.55304,-1.22779 -2.250948,-0.76737 -4.143786,-1.99516 -1.892839,-1.22778 -3.069468,-3.27409 -1.125472,-2.04632 -1.125472,-5.2181 0,-3.06947 1.790523,-5.42273 1.790523,-2.40441 4.962303,-3.73452 3.22295,-1.38126 7.36673,-1.38126 3.93915,0 7.05977,1.58589 3.12063,1.5859 4.96231,4.34842 1.84168,2.76252 1.84168,6.24125 h -7.36672 q -0.20463,-2.76252 -1.89284,-4.29726 -1.63705,-1.53473 -4.85999,-1.53473 -3.22294,0 -4.91115,1.17663 -1.68821,1.17663 -1.68821,3.01831 0,1.63705 1.12547,2.55789 1.17663,0.86968 3.06947,1.48358 1.89284,0.56273 4.14378,1.02315 2.3021,0.46042 4.55305,1.17663 2.25094,0.66505 4.14378,1.89284 1.944,1.17663 3.06947,3.17178 1.17663,1.99516 1.17663,5.11578 0,4.96231 -3.73452,7.72483 -3.73452,2.76252 -10.48735,2.76252 -4.14378,0 -7.41788,-1.58589 -3.274102,-1.58589 -5.218098,-4.34841 -1.943997,-2.76252 -2.09747,-6.29241 z"
       style="font-weight:600;font-family:'Stack Sans Headline';-inkscape-font-specification:'Stack Sans Headline Semi-Bold';text-align:center;text-anchor:middle"
       id="path1127" />
    <path
       d="m 143.2886,332.18745 q -5.67852,0 -9.66882,-2.50673 -3.93915,-2.55789 -5.98547,-6.80399 -2.04631,-4.24609 -2.04631,-9.46419 0,-3.83684 1.12547,-7.21325 1.17663,-3.42757 3.42758,-5.98546 2.25094,-2.55789 5.52504,-3.99031 3.32526,-1.48358 7.62251,-1.48358 4.2461,0 7.5202,1.48358 3.32525,1.43242 5.5762,3.99031 2.25094,2.55789 3.37641,5.98546 1.17663,3.37641 1.17663,7.21325 0,5.2181 -2.04631,9.46419 -2.04631,4.2461 -5.98546,6.80399 -3.93915,2.50673 -9.61767,2.50673 z m 0,-6.39472 q 3.58105,0 5.88315,-1.73937 2.3021,-1.79052 3.37641,-4.6042 1.12547,-2.86484 1.12547,-6.03662 0,-3.17178 -1.12547,-5.98546 -1.07431,-2.81368 -3.37641,-4.55305 -2.3021,-1.79052 -5.88315,-1.79052 -3.6322,0 -5.98546,1.79052 -2.3021,1.73937 -3.37642,4.55305 -1.07431,2.81368 -1.07431,5.98546 0,3.17178 1.07431,6.03662 1.07432,2.81368 3.37642,4.6042 2.35326,1.73937 5.98546,1.73937 z"
       style="font-weight:600;font-family:'Stack Sans Headline';-inkscape-font-specification:'Stack Sans Headline Semi-Bold';text-align:center;text-anchor:middle"
       id="path1124" />
    <path
       d="m 197.92509,316.78895 q -0.3581,4.60421 -2.35326,8.08294 -1.94399,3.47873 -5.47388,5.42272 -3.47873,1.89284 -8.54335,1.89284 -5.67852,0 -9.66883,-2.50673 -3.93915,-2.55789 -5.98546,-6.80399 -2.04631,-4.24609 -2.04631,-9.46419 0,-3.83684 1.12547,-7.21325 1.17663,-3.42757 3.42757,-5.98546 2.25094,-2.55789 5.52504,-3.99031 3.32526,-1.48358 7.62252,-1.48358 7.21325,0 11.25471,3.83684 4.09263,3.78568 4.91115,10.23156 h -7.41788 q -0.25579,-1.73937 -0.86968,-3.12063 -0.6139,-1.43242 -1.68821,-2.45557 -1.02316,-1.02316 -2.55789,-1.58589 -1.53473,-0.56274 -3.6322,-0.56274 -3.63221,0 -5.98547,1.79052 -2.3021,1.73937 -3.37641,4.55305 -1.07432,2.81368 -1.07432,5.98546 0,3.17178 1.07432,6.03662 1.07431,2.81368 3.37641,4.6042 2.35326,1.73937 5.98547,1.73937 2.3021,0 3.93915,-0.66505 1.63705,-0.66506 2.71136,-1.84169 1.12547,-1.22778 1.68821,-2.86483 0.56273,-1.63705 0.71621,-3.63221 z"
       style="font-weight:600;font-family:'Stack Sans Headline';-inkscape-font-specification:'Stack Sans Headline Semi-Bold';text-align:center;text-anchor:middle"
       id="path1121" />
    <path
       d="m 202.06884,295.55847 h 6.95747 v 35.81046 h -6.95747 z"
       style="font-weight:600;font-family:'Stack Sans Headline';-inkscape-font-specification:'Stack Sans Headline Semi-Bold';text-align:center;text-anchor:middle"
       id="path1118" />
    <path
       d="m 223.75969,295.55847 h 6.65052 l -10.48735,35.81046 h -7.11094 z m 9.8223,0 11.05008,35.81046 h -7.16209 l -10.53851,-35.81046 z m -14.57997,22.04901 h 19.28649 v 6.03662 h -19.28649 z"
       style="font-weight:600;font-family:'Stack Sans Headline';-inkscape-font-specification:'Stack Sans Headline Semi-Bold';text-align:center;text-anchor:middle"
       id="path1115" />
    <path
       d="m 248.3665,295.55847 h 6.95746 v 35.81046 h -6.95746 z m 6.65051,29.72268 h 15.24503 v 6.08778 h -15.24503 z"
       style="font-weight:600;font-family:'Stack Sans Headline';-inkscape-font-specification:'Stack Sans Headline Semi-Bold';text-align:center;text-anchor:middle"
       id="path1112" />
  </g>
</svg>
