<?xml version="1.0" encoding="UTF-8" standalone="no"?>
<svg
   version="1.1"
   viewBox="0 0 366.26229 356.8415"
   id="svg12"
   width="366.2623"
   height="356.84149"
   xmlns:xlink="http://www.w3.org/1999/xlink"
   xmlns="http://www.w3.org/2000/svg"
   xmlns:svg="http://www.w3.org/2000/svg">
  <defs
     id="defs16">
    <linearGradient
       id="linearGradient886">
      <stop
         style="stop-color:#3771c8;stop-opacity:1"
         offset="0"
         id="stop882" />
      <stop
         style="stop-color:#2ca089;stop-opacity:1"
         offset="1"
         id="stop884" />
    </linearGradient>
    <linearGradient
       id="linearGradient5186">
      <stop
         style="stop-color:#ef2008;stop-opacity:1"
         offset="0"
         id="stop5182" />
      <stop
         style="stop-color:#ff6428;stop-opacity:1"
         offset="1"
         id="stop5184" />
    </linearGradient>
    <linearGradient
       xlink:href="#linearGradient886"
       id="linearGradient11474"
       gradientUnits="userSpaceOnUse"
       gradientTransform="matrix(0.46303176,0,0,0.46303176,-56.588306,251.53577)"
       x1="225.77231"
       y1="173.93456"
       x2="1111.1683"
       y2="173.93456" />
    <linearGradient
       xlink:href="#linearGradient1160"
       id="linearGradient1094-2"
       gradientUnits="userSpaceOnUse"
       gradientTransform="matrix(0.4787416,0,0,0.4787416,-61.976132,260.06994)"
       x1="239.09921"
       y1="174.31239"
       x2="855.43896"
       y2="174.31239" />
    <linearGradient
       id="linearGradient1160">
      <stop
         style="stop-color:#0d6eff;stop-opacity:1"
         offset="0"
         id="stop1156" />
      <stop
         style="stop-color:#45da64;stop-opacity:1"
         offset="1"
         id="stop1158" />
    </linearGradient>
    <linearGradient
       xlink:href="#linearGradient1160"
       id="linearGradient1207"
       gradientUnits="userSpaceOnUse"
       gradientTransform="matrix(0.4787416,0,0,0.4787416,-61.976131,260.06994)"
       x1="239.09921"
       y1="174.31239"
       x2="855.43896"
       y2="174.31239" />
    <linearGradient
       xlink:href="#linearGradient1160"
       id="linearGradient1422"
       gradientUnits="userSpaceOnUse"
       gradientTransform="matrix(0.4787416,0,0,0.4787416,-61.976131,260.06994)"
       x1="239.09921"
       y1="174.31239"
       x2="855.43896"
       y2="174.31239" />
    <linearGradient
       xlink:href="#linearGradient5186"
       id="linearGradient861-6"
       x1="177.47392"
       y1="85.937981"
       x2="1418.8431"
       y2="85.937981"
       gradientUnits="userSpaceOnUse"
       gradientTransform="translate(44.204329)" />
    <linearGradient
       id="linearGradient1884">
      <stop
         style="stop-color:#157ee9;stop-opacity:1"
         offset="0"
         id="stop1880" />
      <stop
         style="stop-color:#3ecc78;stop-opacity:1"
         offset="1"
         id="stop1882" />
    </linearGradient>
    <linearGradient
       xlink:href="#linearGradient1884"
       id="linearGradient2995-8"
       x1="122.06052"
       y1="131.13593"
       x2="344.73987"
       y2="130.72453"
       gradientUnits="userSpaceOnUse"
       gradientTransform="matrix(1.3240204,1.5813012e-8,0,1.3240194,-98.849286,-50.480148)" />
    <linearGradient
       xlink:href="#linearGradient5186"
       id="linearGradient2720-0"
       x1="162.25932"
       y1="131.28523"
       x2="258.85034"
       y2="131.28523"
       gradientUnits="userSpaceOnUse"
       gradientTransform="matrix(0.63057971,1.0921961,-1.0921956,0.63057941,189.93719,-189.83101)" />
    <linearGradient
       xlink:href="#linearGradient5186"
       id="linearGradient861-6-6"
       x1="177.47392"
       y1="85.937981"
       x2="1418.8431"
       y2="85.937981"
       gradientUnits="userSpaceOnUse"
       gradientTransform="translate(44.204329)" />
    <linearGradient
       xlink:href="#linearGradient5186"
       id="linearGradient17043"
       gradientUnits="userSpaceOnUse"
       gradientTransform="matrix(0.47132896,0,0,0.47132896,241.85429,160.52067)"
       x1="225.77231"
       y1="173.93456"
       x2="1111.1683"
       y2="173.93456" />
    <linearGradient
       xlink:href="#linearGradient5186"
       id="linearGradient861-6-6-2"
       x1="177.47392"
       y1="85.937981"
       x2="1418.8431"
       y2="85.937981"
       gradientUnits="userSpaceOnUse"
       gradientTransform="translate(44.204329)" />
    <linearGradient
       xlink:href="#linearGradient1884"
       id="linearGradient30106"
       x1="90.813553"
       y1="313.46371"
       x2="267.71695"
       y2="313.46371"
       gradientUnits="userSpaceOnUse"
       gradientTransform="translate(6.0045624,-49.962009)" />
  </defs>
  <path
     style="color:#000000;fill:url(#linearGradient2995-8);stroke-width:0.999999;stroke-linecap:round;-inkscape-stroke:none"
     d="m 268.96781,180.69831 5.16231,-8.95383 -28.23242,-16.3029 -1.51488,2.66896 c -0.67322,1.18596 -1.37768,2.35403 -2.11494,3.50126 l -1.729,2.687 z m 16.80059,-52.37762 6.8e-4,-10.34699 -32.82814,-9e-4 0.16654,3.20035 c 0.0359,0.69883 0.0594,1.39896 0.0752,2.09853 -0.0232,0.60423 -0.0518,1.20755 -0.09,1.81101 l -0.20555,3.23765 z m -48.59293,84.16543 -16.36378,-28.36856 -2.66639,1.63678 c -1.16859,0.71739 -2.3571,1.40171 -3.5643,2.05209 l -2.75806,1.48782 16.38845,28.37565 z m -52.39191,16.81913 -0.002,-32.89725 -3.18742,0.15237 c -0.5698,0.0272 -1.14075,0.0474 -1.7111,0.0613 -0.73073,-0.0254 -1.46213,-0.061 -2.19181,-0.10827 l -3.22448,-0.20753 -0.0135,3.23798 -9e-4,0.006 5.5e-4,29.75619 z m 87.18958,-153.511737 -5.16181,-8.952946 -2.6378,1.521485 -23.67618,13.668032 1.63779,2.664629 c 0.71145,1.158311 1.39054,2.33724 2.03695,3.533091 l 1.48816,2.753419 z m -51.32849,-13.341004 16.53026,-28.643678 -8.96553,-5.187772 -1.52187,2.640914 -14.96478,25.924753 2.71388,1.49941 c 1.19691,0.661261 2.37564,1.356633 3.53288,2.085158 z m -73.19321,126.766901 -2.64154,-1.52078 c -1.18707,-0.68246 -2.35272,-1.39905 -3.49918,-2.14767 l -2.4839,-1.92864 -2.43359,4.02557 -14.33476,24.836 8.96554,5.18776 z m 37.33084,-138.930031 7.8e-4,-33.30136 -10.33025,-5.78e-4 -1.2e-4,3.044114 -6.1e-4,30.194804 3.19826,-0.16291 c 0.73096,-0.03686 1.46279,-0.06009 2.19444,-0.07505 0.56566,0.02374 1.13058,0.05368 1.6955,0.09055 z m -65.8213,113.830971 -1.62314,-2.66091 c -0.70621,-1.15844 -1.37909,-2.33736 -2.01979,-3.53327 l -1.48455,-2.76804 -2.72084,1.56944 -26.007755,15.01847 5.161806,8.95292 z m -12.20277,-35.79944 -0.14774,-3.18716 c -0.0281,-0.60065 -0.0484,-1.20118 -0.0613,-1.80241 0.0261,-0.70521 0.0612,-1.41135 0.1074,-2.11548 l 0.21326,-3.24278 -33.402972,5.8e-4 -1.24e-4,3.04416 -5.68e-4,7.30284 z m 40.89975,-70.879119 -16.63259,-28.81842 -2.63726,1.523943 -6.32758,3.661992 16.6326,28.81845 2.66768,-1.64321 c 1.1634,-0.717178 2.34573,-1.401535 3.54737,-2.052513 z m -28.47398,24.8469 -28.914286,-16.693687 -1.523001,2.63791 -3.641922,6.314479 28.755769,16.606475 1.51084,-2.683305 c 0.66651,-1.186683 1.36647,-2.353822 2.10021,-3.500208 z"
     id="rect918-2" />
  <path
     id="circle79-1"
     style="fill:url(#linearGradient2720-0);fill-opacity:1;stroke-width:3.99999"
     d="M 232.06797,92.468079 A 60.908341,60.908199 60 0 0 155.39475,67.001547 l 10.22695,17.713598 a 40.605558,40.605464 60 0 1 48.86307,17.904625 40.605558,40.605464 60 0 1 -8.91877,51.28085 l 10.22002,17.7016 A 60.908341,60.908199 60 0 0 232.06797,92.468079 Z M 143.52669,73.787286 a 60.908341,60.908199 60 0 0 -16.95471,79.588904 60.908341,60.908199 60 0 0 77.40339,25.11123 L 193.78902,160.84416 A 40.605558,40.605464 60 0 1 144.15519,143.22451 40.605558,40.605464 60 0 1 153.7299,91.4597 Z" />
  <text
     xml:space="preserve"
     style="font-size:51.1578px;line-height:1.25;font-family:Ubuntu;-inkscape-font-specification:'Ubuntu, Normal';mix-blend-mode:normal;fill:url(#linearGradient30106);fill-opacity:1;stroke-width:1"
     x="183.42815"
     y="281.40689"
     id="text9133"
     transform="scale(0.99924017,1.0007604)"><tspan
       id="tspan9131"
       x="183.42815"
       y="281.40689"
       style="font-style:normal;font-variant:normal;font-weight:600;font-stretch:normal;font-size:51.1578px;font-family:'Stack Sans Headline';-inkscape-font-specification:'Stack Sans Headline Semi-Bold';text-align:center;text-anchor:middle;fill:url(#linearGradient30106);fill-opacity:1;stroke-width:1">LIVE FEEDS</tspan></text>
</svg>
